<svg xmlns="http://www.w3.org/2000/svg" width="250" height="96" viewBox="0 0 250 96"><title>logo</title><path d="M109.668,69.167H67.481A10.074,10.074,0,0,1,57.408,59.091v-16.1A10.075,10.075,0,0,1,67.481,32.919h32.1a10.077,10.077,0,0,1,10.077,10.075v13.2H69.492v3.024l40.166-.045ZM69.492,45.889H97.75v-3.02H69.492Z" style="fill:#fffffe"/><path d="M52.254,42.994v16.1A10.08,10.08,0,0,1,42.177,69.167h-32.1A10.079,10.079,0,0,1,0,59.091v-16.1A10.075,10.075,0,0,1,10.076,32.919h32.1A10.077,10.077,0,0,1,52.254,42.994ZM12.086,59.212H39.811V42.869H12.086Z" style="fill:#fffffe"/><polygon points="217.719 69.167 229.803 69.167 229.803 32.919 217.719 32.919 217.719 69.167" style="fill:#fffffe"/><polygon points="199.588 69.165 211.676 69.165 211.676 0.583 199.588 0.583 199.588 69.165" style="fill:#fffffe"/><polygon points="217.719 27.766 229.803 27.766 229.803 0.583 217.719 0.583 217.719 27.766" style="fill:#d8232a"/><path d="M155.157,32.919,124.9,32.912A10.028,10.028,0,0,0,114.812,42.92V69.167H126.9v-26.3h28.257v-9.95" style="fill:#fffffe"/><polyline points="171.33 0.583 159.246 0.583 159.246 69.167 171.33 69.167 171.33 42.869 195.503 42.869 195.503 32.919 171.33 32.919 171.33 0.583" style="fill:#fffffe"/><path d="M242.458,15.226A7.583,7.583,0,0,0,250,7.643V7.6a7.542,7.542,0,1,0-15.083.044v.043a7.518,7.518,0,0,0,7.541,7.54Zm.014-1.084a6.365,6.365,0,0,1-6.41-6.448v-.04a6.409,6.409,0,0,1,12.818-.043v.043a6.427,6.427,0,0,1-6.408,6.488Zm-2.962-2.818h1.475V8.681h1.6l1.82,2.643h1.778l-2.037-2.9a2.307,2.307,0,0,0,1.776-2.339c0-1.6-1.257-2.426-2.947-2.426H239.51Zm1.475-3.856V4.956h1.864c1,0,1.559.433,1.559,1.255,0,.737-.562,1.257-1.559,1.257Z" style="fill:#fffffe"/><path d="M9.917,85.614A4.081,4.081,0,0,0,6.366,83.85c-1.593,0-2.775.736-2.775,2.055,0,1.185.7,1.631,2.327,2.039l1.787.444c2.173.564,3.841,1.341,3.841,3.687,0,2.483-2.153,3.918-4.967,3.918a5.93,5.93,0,0,1-5.26-2.7l1.4-.989a4.349,4.349,0,0,0,3.96,2.153c1.766,0,3.105-.756,3.105-2.289,0-1.3-1.009-1.8-2.7-2.231l-1.612-.408c-1.92-.5-3.609-1.124-3.609-3.472,0-2.405,2.1-3.724,4.522-3.724a5.766,5.766,0,0,1,4.793,2.211L9.917,85.614" style="fill:#fffffe"/><path d="M37.308,82.569h1.746L35.271,95.76H33.893l-2.33-7.971c-.27-.95-.406-1.534-.522-2-.176.7-.312,1.163-.543,2.039l-2.292,7.932H26.848L22.909,82.57h1.844l2.076,7.3c.33,1.147.659,2.466.757,2.815.252-.971.486-1.921.756-2.853l2.018-7.255h1.32l2.136,7.3c.329,1.127.679,2.407.756,2.757,0,0,.485-1.884.738-2.8l2-7.255" style="fill:#fffffe"/><polygon points="51.248 95.76 52.956 95.76 52.956 82.569 51.248 82.569 51.248 95.76" style="fill:#fffffe"/><polyline points="65.075 82.569 74.893 82.569 74.893 84.101 70.838 84.101 70.838 95.76 69.13 95.76 69.13 84.101 65.075 84.101 65.075 82.569" style="fill:#fffffe"/><polyline points="96.173 95.76 86.276 95.76 86.276 94.499 93.922 84.101 86.605 84.101 86.605 82.569 95.979 82.569 95.979 83.908 88.431 94.228 96.173 94.228 96.173 95.76" style="fill:#fffffe"/><polyline points="117.558 95.76 108.359 95.76 108.359 82.569 117.189 82.569 117.189 84.101 110.067 84.101 110.067 88.214 116.53 88.214 116.53 89.746 110.067 89.746 110.067 94.228 117.558 94.228 117.558 95.76" style="fill:#fffffe"/><path d="M134.687,88.6a5.38,5.38,0,0,0,2.272-.329,1.98,1.98,0,0,0,1.126-1.942,2,2,0,0,0-1.165-1.94,5.573,5.573,0,0,0-2.25-.31h-2.951V88.6Zm-2.968,7.157h-1.708V82.569h4.967a7.467,7.467,0,0,1,2.718.388,3.429,3.429,0,0,1,2.154,3.4,3.618,3.618,0,0,1-3.337,3.684l3.725,5.724H138.1l-3.611-5.646h-2.774Z" style="fill:#fffffe"/><polyline points="160.749 95.76 152.501 95.76 152.501 82.569 154.228 82.569 154.228 94.228 160.749 94.228 160.749 95.76" style="fill:#fffffe"/><path d="M178.427,86.138a14.239,14.239,0,0,1-.5-1.552H177.9c-.1.33-.253.854-.5,1.572l-1.476,4.327h4ZM174.1,95.76h-1.785l4.717-13.191h1.9l4.637,13.191h-1.843l-1.319-3.8H175.42Z" style="fill:#fffffe"/><path d="M203.566,91.435c.407.582.911,1.357.989,1.493h.018s-.039-.969-.039-2.133V82.569h1.709V95.76h-1.688l-6.172-8.883c-.368-.525-.951-1.437-1.028-1.592h-.02s.039.853.039,1.629V95.76h-1.707V82.569h1.688l6.211,8.866" style="fill:#fffffe"/><path d="M221.383,94.247h1.823c1.593,0,2.7,0,3.669-.814a5.6,5.6,0,0,0,1.553-4.248,5.827,5.827,0,0,0-1.611-4.249c-.933-.777-1.94-.835-3.863-.835h-1.571Zm-1.708,1.513V82.569H222.9c2.115,0,3.512.019,4.792.951a6.9,6.9,0,0,1,2.445,5.588,7.357,7.357,0,0,1-1.94,5.275c-1.417,1.377-2.814,1.377-5.375,1.377Z" style="fill:#fffffe"/></svg>