<?xml version="1.0" encoding="utf-8"?>
<!-- Generator: Adobe Illustrator 27.9.0, SVG Export Plug-In . SVG Version: 6.00 Build 0)  -->
<svg version="1.1" id="Ebene_1" xmlns="http://www.w3.org/2000/svg" xmlns:xlink="http://www.w3.org/1999/xlink" x="0px" y="0px"
	 viewBox="0 0 372.8 45.7" style="enable-background:new 0 0 372.8 45.7;" xml:space="preserve">
<style type="text/css">
	.st0{fill:#FFEF68;stroke:#FFFFFF;stroke-width:2;stroke-miterlimit:10;}
</style>
<g>
	<path class="st0" d="M32.8,22.1c-1.4-0.9-3-1.6-4.6-2.2c-1.7-0.5-3.4-1-5.1-1.3c-1.7-0.4-3.2-0.7-4.6-1.1c-1.4-0.3-2.5-0.8-3.4-1.3
		c-0.9-0.5-1.3-1.3-1.3-2.2c0-0.6,0.2-1.2,0.7-1.8c0.4-0.6,1.2-1,2.2-1.4c1-0.4,2.3-0.5,4-0.5c1.8,0,3.7,0.3,5.7,0.8
		c2,0.5,3.9,1.3,5.9,2.5l3.6-8.8c-2-1.2-4.4-2.2-7-2.8C26,1.3,23.3,1,20.6,1C16.5,1,13,1.6,10.3,2.9C7.5,4.1,5.4,5.7,4.1,7.8
		c-1.4,2-2,4.3-2,6.8c0,2.2,0.4,4.1,1.3,5.6c0.9,1.5,2,2.7,3.4,3.6c1.4,0.9,3,1.7,4.7,2.2c1.7,0.6,3.4,1,5.1,1.3
		c1.7,0.3,3.2,0.7,4.6,1.1c1.4,0.4,2.6,0.8,3.5,1.4c0.9,0.5,1.3,1.3,1.3,2.2c0,0.7-0.2,1.3-0.7,1.9C24.7,34.3,24,34.7,23,35
		c-1,0.3-2.3,0.4-4,0.4c-2.4,0-4.9-0.4-7.4-1.2s-4.6-1.8-6.5-3l-3.9,8.8c2,1.3,4.5,2.4,7.7,3.3c3.2,0.9,6.5,1.3,10,1.3
		c4.2,0,7.6-0.6,10.4-1.9c2.8-1.2,4.8-2.9,6.2-5c1.4-2.1,2.1-4.3,2.1-6.8c0-2.2-0.4-4-1.3-5.5C35.4,24.2,34.3,23,32.8,22.1z"/>
	<polygon class="st0" points="80.9,9.3 80.9,1.8 44.7,1.8 44.7,11.3 65.3,11.3 44.3,36.3 44.3,43.8 81.8,43.8 81.8,34.4 59.8,34.4 	
		"/>
	<polygon class="st0" points="102,26.9 120.6,26.9 120.6,18.1 102,18.1 102,11.1 123.2,11.1 123.2,1.8 90.3,1.8 90.3,43.8 
		123.9,43.8 123.9,34.6 102,34.6 	"/>
	<path class="st0" d="M146.3,14.1c1-1.1,2.2-1.9,3.7-2.4c1.4-0.6,3-0.8,4.7-0.8c2,0,3.8,0.4,5.4,1.3c1.6,0.8,3.1,2.1,4.5,3.7
		l7.6-6.8c-2-2.6-4.6-4.6-7.6-5.9c-3.1-1.3-6.5-2-10.4-2c-3.3,0-6.4,0.5-9.2,1.6c-2.8,1.1-5.2,2.6-7.3,4.5c-2.1,1.9-3.7,4.2-4.9,6.9
		c-1.2,2.7-1.7,5.6-1.7,8.8s0.6,6.1,1.7,8.8c1.2,2.7,2.8,5,4.9,6.9c2.1,1.9,4.5,3.4,7.3,4.5s5.9,1.6,9.2,1.6c3.9,0,7.4-0.7,10.4-2
		c3.1-1.4,5.6-3.3,7.6-5.9l-7.6-6.8c-1.4,1.6-2.9,2.9-4.5,3.7c-1.6,0.8-3.4,1.3-5.4,1.3c-1.7,0-3.3-0.3-4.7-0.8s-2.7-1.4-3.7-2.4
		c-1-1.1-1.8-2.3-2.4-3.8c-0.6-1.5-0.9-3.1-0.9-4.9s0.3-3.4,0.9-4.9C144.5,16.4,145.3,15.2,146.3,14.1z"/>
	<polygon class="st0" points="208.3,17.6 192.1,17.6 192.1,1.8 180.2,1.8 180.2,43.8 192.1,43.8 192.1,27.5 208.3,27.5 208.3,43.8 
		220.1,43.8 220.1,1.8 208.3,1.8 	"/>
	<path class="st0" d="M258.8,24.8c0,3.6-0.7,6.1-2.1,7.7c-1.4,1.6-3.3,2.3-5.8,2.3c-2.5,0-4.4-0.8-5.8-2.3c-1.4-1.6-2.1-4.1-2.1-7.7
		v-23h-11.9v23.3c0,6.2,1.7,11,5.2,14.4s8.3,5.1,14.5,5.1c6.2,0,11-1.7,14.5-5.1c3.5-3.4,5.2-8.2,5.2-14.4V1.8h-11.8V24.8z"/>
	<path class="st0" d="M294,1.8l-18.5,42h12.1l3.3-8.2h17.8l3.3,8.2h12.4l-18.6-42H294z M294.4,26.9l5.4-13.4l5.4,13.4H294.4z"/>
	<polygon class="st0" points="360.2,1.8 360.2,24.2 341.7,1.8 331.9,1.8 331.9,43.8 343.5,43.8 343.5,21.5 362,43.8 371.8,43.8 
		371.8,1.8 	"/>
</g>
</svg>
