<svg width="101" height="101" viewBox="0 0 101 101" fill="none" xmlns="http://www.w3.org/2000/svg">
<path d="M12.1881 38.1056C18.9126 17.0503 41.3593 5.46107 62.4224 12.1729C83.4992 18.8892 95.1264 41.4178 88.3849 62.479C81.6325 83.5745 59.1583 95.1379 38.0593 88.373C17.0121 81.6229 5.45817 59.1781 12.1876 38.1073L12.1881 38.1056Z" stroke="#564A45" stroke-width="8" stroke-miterlimit="10"/>
<path d="M62.6004 47.1703C62.2691 47.0266 62.0369 46.9032 61.7911 46.8226C60.029 46.2512 58.2718 45.6644 56.4955 45.1375C55.8129 44.9361 55.6701 44.6338 55.9059 43.9735C56.3472 42.7358 56.707 41.47 57.1164 40.2201C57.551 38.8915 58.4839 38.4166 59.8419 38.8361C61.1822 39.2518 62.5253 39.6646 63.8514 40.1248C64.4762 40.3417 64.7789 40.1858 64.9724 39.5573C65.5876 37.5583 66.225 35.5664 66.8846 33.5817C67.0891 32.9661 66.9485 32.657 66.3131 32.4612C64.1425 31.793 62.0019 31.0307 59.822 30.3973C54.7033 28.9083 50.4921 30.9205 48.4831 35.8427C47.7954 37.5261 47.2727 39.2773 46.7175 41.0125C46.5121 41.6542 46.244 41.891 45.5595 41.6305C44.6685 41.2906 43.7361 41.0564 42.8339 40.7394C42.2918 40.5471 42.0207 40.681 41.8473 41.2405C41.1867 43.3815 40.5038 45.5154 39.7987 47.6422C39.6068 48.2184 39.8052 48.4592 40.3377 48.6108C41.112 48.8321 41.876 49.0974 42.6444 49.3432C43.4863 49.6127 43.775 50.1647 43.5104 50.9994C41.4071 57.5722 39.3175 64.1494 37.1846 70.7146C36.915 71.5452 37.0065 71.9253 37.9126 72.1889C40.2362 72.8626 42.5275 73.643 44.8325 74.3806C45.6494 74.642 46.1861 74.3736 46.4428 73.5754C48.5642 66.9461 50.6998 60.3194 52.792 53.6808C53.0432 52.884 53.3664 52.729 54.1311 53.0039C55.5926 53.53 57.0898 53.9507 58.5629 54.4466C59.1214 54.6347 59.4436 54.5416 59.6701 53.9576C60.0278 53.0402 60.4638 52.1554 60.8552 51.2506C61.4317 49.9146 61.998 48.5754 62.597 47.1692L62.6004 47.1703Z" fill="#564A45"/>
</svg>
