<svg xmlns="http://www.w3.org/2000/svg" version="1.1" xmlns:xlink="http://www.w3.org/1999/xlink" xmlns:svgjs="http://svgjs.com/svgjs" width="250" height="250"><svg version="1.1" id="SvgjsSvg1000" xmlns="http://www.w3.org/2000/svg" xmlns:xlink="http://www.w3.org/1999/xlink" x="0px" y="0px" viewBox="0 0 250 250" style="enable-background:new 0 0 250 250;" xml:space="preserve">
<style type="text/css">
	.st0{fill:#AEDA94;}
	.st1{fill:#FFFFFF;}
</style>
<path class="st0" d="M223.5,250H26.5C11.9,250,0,238.1,0,223.5V26.5C0,11.9,11.9,0,26.5,0h196.9C238.1,0,250,11.9,250,26.5v196.9
	C250,238.1,238.1,250,223.5,250z"></path>
<g>
	<path class="st1" d="M38,107.7c-0.6,0.1-1.1,0.3-1.6,0.5c-0.5,0.2-0.9,0.5-1.4,0.7c-0.1,0.1-0.2,0.2-0.3,0.3s-0.2,0.2-0.3,0.3
		c-0.1,0-0.1,0.1-0.2,0.1c-0.2,0.1-0.3,0.3-0.4,0.4c-0.2,0.2-0.3,0.4-0.5,0.6c-0.2,0.2-0.3,0.4-0.4,0.6c-0.6,1-0.9,2.2-1,3.5
		c-0.1,0.7,0,1.6,0.1,2.4c0.1,1.1,0.3,2.2,0.7,3.3c0.1,0.6,0.3,1.1,0.5,1.7c0.2,0.6,0.4,1.1,0.6,1.7c0.2,0.6,0.4,1.1,0.7,1.7
		c1.6,3.8,3.7,7.6,5.9,11.1c0.6,0.8,1.1,1.7,1.7,2.6c0.6,0.8,1.1,1.7,1.8,2.5c-0.2-1-0.4-2.2-0.5-3.2c-0.3-2.2-0.5-4.3-0.6-6.4
		c0-1-0.1-2.2-0.1-3.2c0-1.8,0.1-3.5,0.2-5.1s0.3-3.5,0.6-5.1c0.4-2.5,0.8-5.1,1.5-7.6c0.2-0.9,0.5-1.8,0.7-2.7l-0.4-0.2
		C42.8,107.3,40.3,107.1,38,107.7z"></path>
	<path class="st1" d="M71,77.2c3.5-1.1,6.9-2.1,10.5-3.1c7-2,14.1-3.7,21.3-5c7.2-1.2,14.6-2.1,22.1-2.1l0,0
		c7.5,0,14.9,0.8,22.1,2.1c7.2,1.3,14.4,3,21.3,5c3.5,1,7,2,10.5,3.1l10.4,3.3c6.8,2.2,13.8,4.5,20.7,6.6
		c-6.9-2.2-44.5-59.6-85-59.6S46.8,84.9,39.9,87c6.9-2.2,13.9-4.3,20.7-6.6L71,77.2z"></path>
	<path class="st1" d="M54,89.6"></path>
	<path class="st1" d="M195.8,89.6c0,0-0.4-0.7-1.1-2c-21.3-8.1-44.9-12.5-69.9-12.5S76.3,79.6,55,87.6c-0.7,1.2-1.1,2-1.1,2
		c-6,12.2-8.9,25.7-8,39c0.7,13.3,5.1,26.1,12.4,37c3.7,5.4,8,10.4,12.8,14.8c4.9,4.4,10.3,8.1,16,11.1c5.7,3,11.7,5.2,18,6.8
		c0-0.1,0-0.3,0-0.4c0.6-4.2,2.4-8.1,5-11.1c-5.6,16.9,5.9,30,14.7,35.7c8.7-5.7,20.3-18.6,14.7-35.7c2.6,3,4.4,6.9,5,11.1
		c0,0.1,0,0.3,0,0.4c6.2-1.6,12.3-3.8,18-6.8c5.8-3,11.1-6.7,16-11.1c4.9-4.4,9.2-9.4,12.8-14.8c7.2-10.9,11.6-23.8,12.4-37
		C204.8,115.3,201.8,101.8,195.8,89.6z M117.4,143.3c0.4,0.3,0.7,0.6,1,0.7c0.7,0.5,1.4,0.9,2.2,1.3c1.4,0.7,2.9,1.1,4.4,1.1
		s3-0.4,4.4-1.1c0.7-0.4,1.4-0.7,2.2-1.3c0.4-0.3,0.7-0.5,1-0.7c0.4-0.3,0.9-0.7,1.4-1c2.1-1.2,4.5-1.7,6.6-1.1
		c2.2,0.5,4,1.8,5.1,3.6c-3.5-2.1-7.3-1.4-9.5,0.7c-0.3,0.3-0.5,0.5-0.7,0.8c-0.4,0.4-0.7,0.7-1.1,1.1c-0.7,0.7-1.7,1.4-2.6,2.1
		c-0.9,0.6-2.1,1-3.2,1.4c-1.1,0.4-2.3,0.5-3.6,0.6c-1.2,0-2.3-0.2-3.6-0.5c-1.1-0.4-2.2-0.8-3.2-1.4c-0.9-0.6-1.9-1.3-2.6-2.1
		c-0.4-0.4-0.7-0.7-1.1-1.1c-0.3-0.4-0.5-0.6-0.7-0.8c-2.2-2.1-6-2.7-9.5-0.7c1-1.8,2.9-3.1,5.1-3.6c2.2-0.5,4.7-0.1,6.7,1.1
		C116.5,142.5,117,143,117.4,143.3z M54.2,111c1.1-2.6,2.5-5.1,4.3-7.5c0.8-1.2,1.8-2.2,2.8-3.4c1-1,2.1-2.1,3.3-3
		c2.3-1.9,4.9-3.6,7.8-4.7c2.8-1.1,5.9-1.9,9.1-2c6.3-0.3,12.3,1.7,17.3,4.8c5.1,3.1,9.3,7.2,12.5,12c-4.9-3.1-9.6-5.8-14.5-7.9
		c-5-2-10-3.2-15-3c-5,0.2-9.8,1.9-14.3,4.5c-1.1,0.7-2.2,1.4-3.4,2.2c-1,0.8-2.2,1.6-3.3,2.4C58.4,107.2,56.5,109.2,54.2,111z
		 M68.7,131.3c-3.8,2-7.2,4.8-10.3,8.1c2.1-3.9,5.2-7.5,9.1-10c3.8-2.6,8.2-4.2,12.8-5c2.2-0.4,4.6-0.6,6.8-0.6
		c2.2,0,4.6,0.1,6.8,0.5c4.5,0.7,8.9,1.9,12.9,3.8c-3.5-1.8-6.6-3.6-9.7-5c-3.2-1.4-6.4-2.5-9.6-3.2c-3.3-0.7-6.6-1-9.9-0.8
		c-3.4,0.2-6.7,0.8-10.4,2.2c2.2-3.3,5.7-5.5,9.6-6.7c3.8-1.2,8.1-1.3,12-0.4c3.9,0.8,7.7,2.6,10.8,5.1c3.1,2.4,5.6,5.4,7.3,9
		c-4.4-0.8-8.8-1.3-13.1-1.5c-2.2-0.1-4.3-0.1-6.6,0c-2.2,0.1-4.3,0.3-6.5,0.7C76.6,128,72.5,129.2,68.7,131.3z M110.2,186.8
		L110.2,186.8L110.2,186.8L110.2,186.8z M139.6,186.8L139.6,186.8L139.6,186.8L139.6,186.8z M159.3,159.8c-3,2.9-5.9,6-9.3,8.9
		c-8.1,6.9-16.2,9.9-25,9.9s-16.9-2.9-25-9.9l0,0c-3.4-2.8-6.3-5.9-9.3-8.9c-3-2.9-6-5.7-9.7-7.9c1,0.2,2.2,0.5,3.2,0.7l1.5,0.6
		l0.7,0.3l0.7,0.4c1,0.5,2,0.9,2.9,1.5c0.9,0.6,1.9,1.1,2.8,1.7c3.7,2.3,7,5,10.4,7.2c3.5,2.2,6.9,4.2,10.5,5.4
		c3.7,1.3,7.4,1.9,11.2,1.9s7.7-0.7,11.2-1.9c3.7-1.2,7.1-3.2,10.5-5.4c3.5-2.2,6.8-4.9,10.4-7.2c0.9-0.6,1.9-1.1,2.8-1.7
		s2-1,2.9-1.5l0.7-0.4l0.7-0.3l1.5-0.6c1-0.4,2.2-0.6,3.2-0.7C165.3,154.1,162.3,156.9,159.3,159.8z M181.2,131.3
		c-3.7-2.1-7.9-3.3-12.1-4c-2.2-0.4-4.2-0.6-6.5-0.7c-2.2-0.2-4.3-0.1-6.6,0c-4.4,0.2-8.7,0.7-13.1,1.5c1.7-3.5,4.2-6.6,7.3-9
		c3.1-2.4,6.8-4.2,10.8-5.1s8.1-0.7,12,0.4s7.4,3.5,9.6,6.7c-3.7-1.3-7-2-10.4-2.2c-3.4-0.2-6.6,0.1-9.9,0.8
		c-3.3,0.7-6.5,1.8-9.6,3.2c-3.2,1.4-6.3,3.2-9.7,5c4-2,8.4-3.2,12.9-3.8c2.2-0.4,4.5-0.5,6.8-0.5c2.2,0,4.6,0.2,6.8,0.6
		c4.5,0.7,9,2.4,12.8,5c3.8,2.5,7,6.1,9.1,10C188.3,136,184.9,133.2,181.2,131.3z M189.3,105.5c-1-0.9-2.2-1.7-3.3-2.4
		c-1.1-0.7-2.2-1.5-3.4-2.2c-4.5-2.7-9.4-4.3-14.3-4.5c-5-0.2-10,0.9-15,3c-5,2-9.6,4.8-14.5,7.9c3.1-4.8,7.4-8.9,12.5-12
		c5.1-3,11-5,17.3-4.8c3.1,0.1,6.2,0.8,9.1,2c2.8,1.1,5.4,2.8,7.8,4.7c1.2,0.9,2.2,2,3.3,3c0.9,1.1,2,2.2,2.8,3.4
		c1.8,2.3,3.1,4.9,4.3,7.5C193.4,109.2,191.4,107.2,189.3,105.5z"></path>
	<path class="st1" d="M206.5,118.5c0.3,1.7,0.4,3.5,0.6,5.1c0.1,1.7,0.2,3.5,0.2,5.1c0,3.2-0.2,6.3-0.6,9.5c-0.1,1-0.3,2.1-0.5,3.1
		c0.9-1.3,1.8-2.5,2.6-3.8c0.3-0.5,0.6-0.8,0.8-1.3c0.9-1.6,1.9-3.1,2.8-4.7c1.5-2.6,2.7-5.3,3.7-8.1c0.4-1.1,0.7-2.2,1-3.3
		c0.2-0.6,0.3-1.1,0.4-1.7c0.1-0.6,0.2-1.1,0.3-1.7c0.1-0.8,0.1-1.6,0.1-2.4c-0.1-0.7-0.2-1.5-0.4-2.2c-0.2-0.5-0.4-0.9-0.6-1.3
		c-0.1-0.2-0.3-0.4-0.4-0.6c-0.2-0.2-0.3-0.4-0.5-0.6c0-0.1-0.1-0.1-0.1-0.1c-0.1-0.1-0.3-0.3-0.5-0.4c-0.2-0.2-0.4-0.4-0.7-0.5
		c-0.7-0.5-1.4-0.7-2.2-1c-0.3-0.1-0.6-0.2-0.8-0.2c-0.3-0.1-0.6-0.1-0.8-0.2c-0.6-0.1-1.1-0.1-1.8-0.2c-0.3,0-0.6,0-0.9,0
		c-0.6,0-1.2,0.1-1.9,0.2c-0.7,0.1-1.2,0.2-1.9,0.3l0,0l-0.4,0.2c0.6,1.8,1,3.7,1.4,5.5C205.9,115.2,206.3,116.9,206.5,118.5z"></path>
</g>
</svg><style>@media (prefers-color-scheme: light) { :root { filter: none; } }
</style></svg>