<?xml version="1.0" encoding="utf-8"?>
<!-- Generator: Adobe Illustrator 27.9.0, SVG Export Plug-In . SVG Version: 6.00 Build 0)  -->
<svg version="1.1" id="Ebene_1" xmlns="http://www.w3.org/2000/svg" xmlns:xlink="http://www.w3.org/1999/xlink" x="0px" y="0px"
	 viewBox="0 0 94 95" style="enable-background:new 0 0 94 95;" xml:space="preserve">
<style type="text/css">
	.st0{clip-path:url(#SVGID_00000113318327505515481220000007572090341632228010_);}
	.st1{fill:#564A45;}
</style>
<g>
	<defs>
		<rect id="SVGID_1_" x="7.2" y="8" transform="matrix(0.9794 -0.2018 0.2018 0.9794 -8.6266 10.3946)" width="79" height="79"/>
	</defs>
	<clipPath id="SVGID_00000004509274253416085690000001964790032647483327_">
		<use xlink:href="#SVGID_1_"  style="overflow:visible;"/>
	</clipPath>
	<g style="clip-path:url(#SVGID_00000004509274253416085690000001964790032647483327_);">
		<path class="st1" d="M50.8,67.4c11-2.3,18.1-13,15.8-24c-2.3-11-13-18.1-24-15.8s-18.1,13-15.8,24C29,62.6,39.8,69.7,50.8,67.4z
			 M44.3,36c6.3-1.3,12.6,2.8,13.9,9.1c1.3,6.3-2.8,12.6-9.1,13.9c-6.3,1.3-12.6-2.8-13.9-9.1C33.8,43.5,37.9,37.3,44.3,36z"/>
		<path class="st1" d="M64.7,27.2c2.5-0.9,3.7-3.7,2.8-6.2c-0.9-2.5-3.7-3.7-6.2-2.8c-2.5,0.9-3.7,3.7-2.8,6.2
			C59.4,26.9,62.2,28.2,64.7,27.2z"/>
		<path class="st1" d="M35.5,90.1l38.3-7.9C84.6,80,91.5,69.5,89.3,58.7l-7.9-38.3C79.2,9.6,68.6,2.6,57.9,4.9l-38.3,7.9
			C8.8,15,1.8,25.5,4,36.3l7.9,38.3C14.1,85.4,24.7,92.4,35.5,90.1z M12.4,34.6c-1.3-6.1,2.7-12.1,8.8-13.4l38.3-7.9
			C65.7,12,71.7,16,73,22.1l7.9,38.3c1.3,6.1-2.7,12.1-8.8,13.4l-38.3,7.9C27.6,83,21.6,79,20.3,72.9L12.4,34.6z"/>
	</g>
</g>
</svg>
