<?xml version="1.0" encoding="utf-8"?>
<!-- Generator: Adobe Illustrator 27.9.0, SVG Export Plug-In . SVG Version: 6.00 Build 0)  -->
<svg version="1.1" id="Ebene_1" xmlns="http://www.w3.org/2000/svg" xmlns:xlink="http://www.w3.org/1999/xlink" x="0px" y="0px"
	 viewBox="0 0 182.6 91.1" style="enable-background:new 0 0 182.6 91.1;" xml:space="preserve">
<style type="text/css">
	.st0{fill:#FFEF68;stroke:#FFFFFF;stroke-miterlimit:10;}
</style>
<g>
	<path class="st0" d="M18.7,38.4c-0.6,0.1-1.5,0.2-2.7,0.2c-1.9,0-3.9-0.3-6-0.9c-2-0.6-3.9-1.4-5.6-2.3L0.6,44
		c1.8,1.1,4,1.9,6.8,2.6c2.7,0.7,5.6,1,8.5,1c3.6,0,6.6-0.5,9.1-1.6c2.4-1.1,4.2-2.5,5.4-4.3c1.2-1.8,1.8-3.7,1.8-5.9
		c0-1.8-0.4-3.4-1.1-4.6c-0.7-1.2-1.6-2.2-2.8-3c-1.1-0.8-2.4-1.4-3.8-1.9c-1.4-0.5-2.7-0.8-4.1-1.1c-1.4-0.3-2.6-0.5-3.8-0.8
		c-1.1-0.2-2.1-0.5-2.8-0.9c-0.7-0.4-1-0.8-1-1.4c0-0.4,0.1-0.8,0.4-1.1c0.3-0.3,0.8-0.6,1.4-0.8c0.7-0.2,1.6-0.3,2.7-0.3
		c1.5,0,3.1,0.2,4.7,0.6c1.6,0.4,3.3,1.1,5,1.9l3.6-8.5c-1.8-1-3.9-1.8-6.2-2.3s-4.6-0.8-7-0.8c-3.6,0-6.6,0.5-9,1.6
		C6,13.7,4.2,15.1,3,16.9c-1.2,1.8-1.8,3.8-1.8,5.9c0,1.9,0.3,3.4,1,4.7s1.6,2.3,2.8,3c1.1,0.8,2.4,1.4,3.8,1.8
		c1.4,0.5,2.8,0.8,4.1,1.1c1.4,0.3,2.6,0.6,3.8,0.8s2.1,0.6,2.8,0.9c0.7,0.4,1,0.9,1,1.5c0,0.4-0.1,0.7-0.4,1
		C19.8,38,19.3,38.2,18.7,38.4z"/>
	<path class="st0" d="M58.1,9.3c1.3,0,2.3-0.4,3.2-1.2c0.9-0.8,1.3-1.9,1.3-3.2c0-1.3-0.4-2.4-1.3-3.2c-0.9-0.8-1.9-1.2-3.2-1.2
		c-1.3,0-2.3,0.4-3.2,1.2c-0.9,0.8-1.3,1.9-1.3,3.2c0,1.3,0.4,2.4,1.3,3.2C55.8,8.9,56.8,9.3,58.1,9.3z"/>
	<path class="st0" d="M47,9.3c1.3,0,2.3-0.4,3.2-1.2c0.9-0.8,1.3-1.9,1.3-3.2c0-1.3-0.4-2.4-1.3-3.2c-0.9-0.8-1.9-1.2-3.2-1.2
		c-1.3,0-2.3,0.4-3.2,1.2c-0.9,0.8-1.3,1.9-1.3,3.2c0,1.3,0.4,2.4,1.3,3.2C44.7,8.9,45.7,9.3,47,9.3z"/>
	<path class="st0" d="M52.4,47.6c5.4,0,9.5-1.4,12.5-4.3c3-2.9,4.5-7,4.5-12.2V11.8H57.9v18.9c0,2.7-0.5,4.6-1.4,5.7
		c-1,1.1-2.3,1.7-3.9,1.7c-1.6,0-2.9-0.6-3.9-1.7c-1-1.1-1.4-3-1.4-5.7V11.8H35.4V31c0,5.2,1.5,9.3,4.5,12.2
		C42.9,46.1,47.1,47.6,52.4,47.6z"/>
	<path class="st0" d="M90.7,38.4c-0.6,0.1-1.5,0.2-2.7,0.2c-1.9,0-3.9-0.3-6-0.9c-2-0.6-3.9-1.4-5.6-2.3L72.7,44
		c1.8,1.1,4,1.9,6.8,2.6c2.7,0.7,5.6,1,8.5,1c3.6,0,6.6-0.5,9.1-1.6c2.4-1.1,4.2-2.5,5.4-4.3c1.2-1.8,1.8-3.7,1.8-5.9
		c0-1.8-0.4-3.4-1.1-4.6c-0.7-1.2-1.6-2.2-2.8-3c-1.1-0.8-2.4-1.4-3.8-1.9c-1.4-0.5-2.7-0.8-4.1-1.1c-1.4-0.3-2.6-0.5-3.8-0.8
		c-1.1-0.2-2.1-0.5-2.8-0.9c-0.7-0.4-1-0.8-1-1.4c0-0.4,0.1-0.8,0.4-1.1c0.3-0.3,0.8-0.6,1.4-0.8c0.7-0.2,1.6-0.3,2.7-0.3
		c1.5,0,3.1,0.2,4.7,0.6c1.6,0.4,3.3,1.1,5,1.9l3.6-8.5c-1.8-1-3.9-1.8-6.2-2.3s-4.6-0.8-7-0.8c-3.6,0-6.6,0.5-9,1.6
		c-2.4,1.1-4.2,2.5-5.5,4.3c-1.2,1.8-1.8,3.8-1.8,5.9c0,1.9,0.3,3.4,1,4.7s1.6,2.3,2.8,3c1.1,0.8,2.4,1.4,3.8,1.8
		c1.4,0.5,2.8,0.8,4.1,1.1c1.4,0.3,2.6,0.6,3.8,0.8s2.1,0.6,2.8,0.9c0.7,0.4,1,0.9,1,1.5c0,0.4-0.1,0.7-0.4,1
		C91.8,38,91.4,38.2,90.7,38.4z"/>
	<path class="st0" d="M129.8,46c2.4-1.1,4.2-2.5,5.4-4.3c1.2-1.8,1.8-3.7,1.8-5.9c0-1.8-0.4-3.4-1.1-4.6c-0.7-1.2-1.6-2.2-2.8-3
		c-1.1-0.8-2.4-1.4-3.8-1.9c-1.4-0.5-2.7-0.8-4.1-1.1c-1.4-0.3-2.6-0.5-3.8-0.8c-1.1-0.2-2.1-0.5-2.8-0.9c-0.7-0.4-1-0.8-1-1.4
		c0-0.4,0.1-0.8,0.4-1.1c0.3-0.3,0.8-0.6,1.4-0.8c0.7-0.2,1.6-0.3,2.7-0.3c1.5,0,3.1,0.2,4.7,0.6c1.6,0.4,3.3,1.1,5,1.9l3.6-8.5
		c-1.8-1-3.9-1.8-6.2-2.3c-2.3-0.5-4.6-0.8-7-0.8c-3.6,0-6.6,0.5-9,1.6c-2.4,1.1-4.2,2.5-5.5,4.3c-1.2,1.8-1.8,3.8-1.8,5.9
		c0,1.9,0.3,3.4,1,4.7s1.6,2.3,2.8,3c1.1,0.8,2.4,1.4,3.8,1.8c1.4,0.5,2.8,0.8,4.1,1.1c1.4,0.3,2.6,0.6,3.8,0.8s2.1,0.6,2.8,0.9
		c0.7,0.4,1,0.9,1,1.5c0,0.4-0.1,0.7-0.4,1c-0.3,0.3-0.8,0.5-1.4,0.7c-0.6,0.1-1.5,0.2-2.7,0.2c-1.9,0-3.9-0.3-6-0.9
		c-2-0.6-3.9-1.4-5.6-2.3l-3.8,8.6c1.8,1.1,4,1.9,6.8,2.6c2.7,0.7,5.6,1,8.5,1C124.4,47.6,127.4,47.1,129.8,46z"/>
	<path class="st0" d="M31.1,74.2c-0.7-1.2-1.6-2.2-2.8-3s-2.4-1.4-3.8-1.9c-1.4-0.5-2.7-0.8-4.1-1.1c-1.4-0.3-2.6-0.5-3.8-0.8
		c-1.1-0.2-2.1-0.5-2.8-0.9c-0.7-0.4-1-0.8-1-1.4c0-0.4,0.1-0.8,0.4-1.1c0.3-0.3,0.8-0.6,1.4-0.8c0.7-0.2,1.6-0.3,2.7-0.3
		c1.5,0,3.1,0.2,4.7,0.6c1.6,0.4,3.3,1.1,5,1.9l3.6-8.5c-1.8-1-3.9-1.8-6.2-2.3s-4.6-0.8-7-0.8c-3.6,0-6.6,0.5-9,1.6
		C6,56.7,4.2,58.1,3,59.9c-1.2,1.8-1.8,3.8-1.8,5.9c0,1.9,0.3,3.4,1,4.7s1.6,2.3,2.8,3c1.1,0.8,2.4,1.4,3.8,1.8
		c1.4,0.5,2.8,0.8,4.1,1.1c1.4,0.3,2.6,0.6,3.8,0.8s2.1,0.6,2.8,0.9c0.7,0.4,1,0.9,1,1.5c0,0.4-0.1,0.7-0.4,1
		c-0.3,0.3-0.8,0.5-1.4,0.7c-0.6,0.2-1.5,0.2-2.7,0.2c-1.9,0-3.9-0.3-6-0.9c-2-0.6-3.9-1.4-5.6-2.3L0.6,87c1.8,1.1,4,1.9,6.8,2.6
		c2.7,0.7,5.6,1,8.5,1c3.6,0,6.6-0.5,9.1-1.6c2.4-1.1,4.2-2.5,5.4-4.3c1.2-1.8,1.8-3.7,1.8-5.9C32.2,77,31.8,75.4,31.1,74.2z"/>
	<path class="st0" d="M47.2,54.8l-15.3,35h12l2.3-6.1h13.3l2.3,6.1h12.2l-15.3-35H47.2z M49.5,75.2l3.4-8.8l3.4,8.8H49.5z"/>
	<path class="st0" d="M97.4,73.7c0,2.7-0.5,4.6-1.4,5.7c-1,1.1-2.3,1.7-3.9,1.7c-1.6,0-2.9-0.6-3.9-1.7c-1-1.1-1.4-3-1.4-5.7V54.8
		H74.9V74c0,5.2,1.5,9.3,4.5,12.2s7.2,4.3,12.6,4.3c5.4,0,9.5-1.4,12.5-4.3s4.5-7,4.5-12.2V54.8H97.4V73.7z"/>
	<polygon class="st0" points="126,76.3 140.8,76.3 140.8,67.8 126,67.8 126,63.7 142.9,63.7 142.9,54.8 114.4,54.8 114.4,89.8 
		143.5,89.8 143.5,80.9 126,80.9 	"/>
	<path class="st0" d="M169,89.8h12.6L174.3,79c2-1,3.5-2.3,4.7-4c1.3-1.9,1.9-4.3,1.9-7s-0.7-5-1.9-7c-1.3-2-3.1-3.5-5.5-4.6
		c-2.4-1.1-5.2-1.6-8.5-1.6h-16.9v35h11.8V81h3.2L169,89.8z M167.8,65c0.8,0.7,1.2,1.7,1.2,3c0,1.3-0.4,2.3-1.2,3
		c-0.8,0.7-2,1.1-3.6,1.1h-4.3v-8.2h4.3C165.8,63.9,167,64.3,167.8,65z"/>
</g>
</svg>
