<?xml version="1.0" encoding="utf-8"?>
<!-- Generator: Adobe Illustrator 27.9.0, SVG Export Plug-In . SVG Version: 6.00 Build 0)  -->
<svg version="1.1" id="Ebene_1" xmlns="http://www.w3.org/2000/svg" xmlns:xlink="http://www.w3.org/1999/xlink" x="0px" y="0px"
	 viewBox="0 0 340.1 113.2" style="enable-background:new 0 0 340.1 113.2;" xml:space="preserve">
<style type="text/css">
	.st0{fill:#FFEF68;}
	.st1{fill:#FFFFFF;}
</style>
<g>
	<g>
		<path class="st0" d="M21.7,38.8c-2.9,0-5.6-0.5-8-1.4c-2.5-0.9-4.6-2.2-6.5-3.9c-1.8-1.7-3.2-3.7-4.3-6.1c-1-2.3-1.5-4.9-1.5-7.7
			c0-2.8,0.5-5.4,1.5-7.7c1-2.3,2.4-4.4,4.3-6.1c1.8-1.7,4-3,6.5-3.9c2.5-0.9,5.2-1.4,8-1.4c3.5,0,6.7,0.6,9.4,1.9
			C33.9,3.9,36.2,5.7,38,8l0.4,0.6l-8.6,7.6l-0.5-0.6c-1-1.2-2.1-2.2-3.2-2.8c-1.1-0.6-2.4-1-3.9-1c-1.1,0-2.2,0.2-3.1,0.5
			c-0.9,0.4-1.7,0.9-2.3,1.6c-0.6,0.7-1.2,1.5-1.5,2.5c-0.4,1-0.6,2.1-0.6,3.4c0,1.2,0.2,2.4,0.6,3.4c0.4,1,0.9,1.8,1.5,2.5
			c0.6,0.7,1.4,1.2,2.3,1.6c0.9,0.4,1.9,0.5,3.1,0.5c1.4,0,2.7-0.3,3.9-1c1.2-0.7,2.2-1.6,3.2-2.8l0.5-0.6l8.6,7.6L38,31.6
			c-1.8,2.3-4.1,4.1-6.9,5.4C28.4,38.2,25.2,38.8,21.7,38.8z"/>
		<path class="st1" d="M21.7,1.5c3.4,0,6.5,0.6,9.1,1.8c2.6,1.2,4.8,2.9,6.6,5.2l-7.4,6.6c-1-1.3-2.2-2.3-3.4-3S23.9,11,22.3,11
			c-1.2,0-2.3,0.2-3.3,0.6s-1.9,1-2.6,1.8c-0.7,0.8-1.3,1.7-1.7,2.8c-0.4,1.1-0.6,2.3-0.6,3.6c0,1.3,0.2,2.5,0.6,3.6
			c0.4,1.1,1,2,1.7,2.8c0.7,0.8,1.6,1.4,2.6,1.8s2.1,0.6,3.3,0.6c1.6,0,3-0.4,4.2-1.1c1.2-0.7,2.4-1.7,3.4-3l7.4,6.6
			c-1.7,2.2-3.9,4-6.6,5.2c-2.7,1.2-5.7,1.8-9.1,1.8c-2.8,0-5.4-0.4-7.8-1.3c-2.4-0.9-4.5-2.1-6.2-3.8c-1.8-1.6-3.1-3.6-4.1-5.8
			c-1-2.2-1.4-4.7-1.4-7.4s0.5-5.2,1.4-7.4c1-2.2,2.3-4.2,4.1-5.8c1.8-1.6,3.8-2.9,6.2-3.8C16.3,1.9,18.9,1.5,21.7,1.5 M21.7,0
			c-3,0-5.8,0.5-8.3,1.4c-2.6,0.9-4.8,2.3-6.7,4.1c-1.9,1.8-3.4,3.9-4.4,6.3c-1,2.4-1.6,5.1-1.6,8c0,2.9,0.5,5.6,1.6,8
			c1,2.4,2.5,4.5,4.4,6.3c1.9,1.8,4.1,3.1,6.7,4.1c2.5,0.9,5.3,1.4,8.3,1.4c3.6,0,6.9-0.7,9.8-2c2.9-1.3,5.3-3.2,7.1-5.6l0.9-1.1
			l-1-0.9l-7.4-6.6l-1.2-1.1l-1,1.2c-0.9,1.1-1.9,2-3,2.7c-1,0.6-2.2,0.9-3.5,0.9c-1,0-2-0.2-2.8-0.5c-0.8-0.3-1.5-0.8-2-1.4
			c-0.6-0.6-1-1.4-1.4-2.3c-0.3-0.9-0.5-2-0.5-3.1c0-1.1,0.2-2.2,0.5-3.1c0.3-0.9,0.8-1.7,1.4-2.3c0.6-0.6,1.2-1.1,2-1.4
			c0.8-0.3,1.8-0.5,2.8-0.5c1.3,0,2.4,0.3,3.5,0.9c1.1,0.6,2.1,1.5,3,2.7l1,1.2l1.2-1.1l7.4-6.6l1-0.9l-0.8-1.1
			c-1.9-2.5-4.3-4.4-7.1-5.7C28.6,0.7,25.3,0,21.7,0L21.7,0z"/>
	</g>
	<g>
		<path class="st0" d="M62.3,38l-5.9-8.8h-2.1V38H41V1.5h17.6c3.4,0,6.3,0.6,8.8,1.7c2.5,1.1,4.5,2.8,5.8,4.8
			c1.4,2.1,2.1,4.6,2.1,7.4c0,2.8-0.7,5.3-2.1,7.4c-1,1.6-2.4,2.9-4.2,3.9L76.7,38H62.3z M57.8,18.8c1.4,0,2.5-0.3,3.1-0.9
			c0.6-0.6,0.9-1.4,0.9-2.5c0-1.1-0.3-1.9-0.9-2.5c-0.6-0.6-1.7-0.9-3.1-0.9h-3.5v6.7H57.8z"/>
		<path class="st1" d="M58.6,2.3c3.3,0,6.1,0.5,8.5,1.6c2.4,1.1,4.2,2.6,5.5,4.6c1.3,2,2,4.3,2,7c0,2.7-0.7,5-2,7
			c-1.1,1.7-2.7,3-4.7,4l7.4,10.8H62.7l-5.9-8.8h-3.2v8.8H41.7v-35H58.6 M53.5,19.6h4.3c1.6,0,2.8-0.4,3.6-1.1
			c0.8-0.7,1.2-1.7,1.2-3c0-1.3-0.4-2.3-1.2-3c-0.8-0.7-2-1.1-3.6-1.1h-4.3V19.6 M58.6,0.8H41.7h-1.5v1.5v35v1.5h1.5h11.8H55v-1.5
			V30h0.9l5.5,8.1l0.4,0.7h0.8h12.6h2.8l-1.6-2.3L70,27c1.5-1,2.8-2.2,3.8-3.7c1.5-2.2,2.2-4.8,2.2-7.8c0-3-0.7-5.6-2.2-7.8
			c-1.5-2.2-3.5-3.9-6.2-5.1C65.1,1.4,62,0.8,58.6,0.8L58.6,0.8z M55,12.9h2.8c1.2,0,2.1,0.2,2.6,0.7c0.3,0.3,0.7,0.8,0.7,1.9
			c0,1.1-0.4,1.6-0.7,1.9c-0.5,0.5-1.4,0.7-2.6,0.7H55V12.9L55,12.9z"/>
	</g>
	<g>
		<polygon class="st0" points="80,38 80,1.5 109.9,1.5 109.9,11.9 93.1,11.9 93.1,14.5 107.9,14.5 107.9,24.5 93.1,24.5 93.1,27.6 
			110.6,27.6 110.6,38 		"/>
		<path class="st1" d="M109.2,2.3v8.9H92.3v4.1h14.8v8.5H92.3v4.6h17.5v8.9H80.7v-35H109.2 M110.7,0.8h-1.5H80.7h-1.5v1.5v35v1.5
			h1.5h29.1h1.5v-1.5v-8.9v-1.5h-1.5h-16v-1.6h13.3h1.5v-1.5v-8.5v-1.5h-1.5H93.8v-1.1h15.3h1.5v-1.5V2.3V0.8L110.7,0.8z"/>
	</g>
	<g>
		<polygon class="st0" points="128.3,38 112.9,1.5 127.2,1.5 135.1,20.8 143.1,1.5 156.3,1.5 140.9,38 		"/>
		<path class="st1" d="M155.2,2.3l-14.8,35h-11.6L114,2.3h12.7l8.3,20.4l8.6-20.4H155.2 M157.5,0.8h-2.3h-11.6h-1l-0.4,0.9
			l-7.2,17.1l-7-17.1l-0.4-0.9h-1H114h-2.3l0.9,2.1l14.8,35l0.4,0.9h1h11.6h1l0.4-0.9l14.8-35L157.5,0.8L157.5,0.8z"/>
	</g>
	<g>
		<polygon class="st0" points="158.5,38 158.5,1.5 188.4,1.5 188.4,11.9 171.6,11.9 171.6,14.5 186.4,14.5 186.4,24.5 171.6,24.5 
			171.6,27.6 189.1,27.6 189.1,38 		"/>
		<path class="st1" d="M187.7,2.3v8.9h-16.8v4.1h14.8v8.5h-14.8v4.6h17.5v8.9h-29.1v-35H187.7 M189.2,0.8h-1.5h-28.5h-1.5v1.5v35
			v1.5h1.5h29.1h1.5v-1.5v-8.9v-1.5h-1.5h-16v-1.6h13.3h1.5v-1.5v-8.5v-1.5h-1.5h-13.3v-1.1h15.3h1.5v-1.5V2.3V0.8L189.2,0.8z"/>
	</g>
	<g>
		<polygon class="st0" points="203.4,38 203.4,12.2 193.1,12.2 193.1,1.5 226.9,1.5 226.9,12.2 216.7,12.2 216.7,38 		"/>
		<path class="st1" d="M226.2,2.3v9.1h-10.2v25.9h-11.8V11.4h-10.2V2.3H226.2 M227.7,0.8h-1.5h-32.3h-1.5v1.5v9.1v1.5h1.5h8.8v24.4
			v1.5h1.5h11.8h1.5v-1.5V12.9h8.8h1.5v-1.5V2.3V0.8L227.7,0.8z"/>
	</g>
	<g>
		<polygon class="st0" points="241.8,38 241.8,12.2 231.5,12.2 231.5,1.5 265.3,1.5 265.3,12.2 255.1,12.2 255.1,38 		"/>
		<path class="st1" d="M264.6,2.3v9.1h-10.2v25.9h-11.8V11.4h-10.2V2.3H264.6 M266.1,0.8h-1.5h-32.3h-1.5v1.5v9.1v1.5h1.5h8.8v24.4
			v1.5h1.5h11.8h1.5v-1.5V12.9h8.8h1.5v-1.5V2.3V0.8L266.1,0.8z"/>
	</g>
	<g>
		<polygon class="st0" points="269.2,38 269.2,1.5 299.1,1.5 299.1,11.9 282.3,11.9 282.3,14.5 297.1,14.5 297.1,24.5 282.3,24.5 
			282.3,27.6 299.8,27.6 299.8,38 		"/>
		<path class="st1" d="M298.4,2.3v8.9h-16.8v4.1h14.8v8.5h-14.8v4.6H299v8.9h-29.1v-35H298.4 M299.9,0.8h-1.5h-28.5h-1.5v1.5v35v1.5
			h1.5H299h1.5v-1.5v-8.9v-1.5H299h-16v-1.6h13.3h1.5v-1.5v-8.5v-1.5h-1.5H283v-1.1h15.3h1.5v-1.5V2.3V0.8L299.9,0.8z"/>
	</g>
	<g>
		<polygon class="st0" points="328.6,38 316.4,23.5 316.4,38 303.4,38 303.4,1.5 314.2,1.5 326.4,16.1 326.4,1.5 339.4,1.5 
			339.4,38 		"/>
		<path class="st1" d="M338.6,2.3v35h-9.7l-13.3-15.9v15.9h-11.5v-35h9.7l13.3,15.9V2.3H338.6 M340.1,0.8h-1.5h-11.5h-1.5v1.5v11.8
			L315,1.3l-0.4-0.5h-0.7h-9.7h-1.5v1.5v35v1.5h1.5h11.5h1.5v-1.5V25.5l10.6,12.7l0.4,0.5h0.7h9.7h1.5v-1.5v-35V0.8L340.1,0.8z"/>
	</g>
	<g>
		<path class="st0" d="M29.4,112.5c-5.3,0-10.5-0.6-15.5-1.8c-5-1.2-9.1-2.8-12.4-4.8L1,105.6l7.4-16.8l0.7,0.4
			c2.9,1.7,6.3,3.1,9.9,4.1c3.6,1,7.2,1.5,10.5,1.5c2,0,3.5-0.1,4.6-0.4c1-0.2,1.8-0.6,2.2-1c0.4-0.4,0.6-0.8,0.6-1.3
			c0-0.5-0.2-1.3-1.5-2c-1.2-0.6-2.8-1.2-4.8-1.6c-2.1-0.4-4.3-0.9-6.8-1.4c-2.5-0.5-5-1.2-7.5-2c-2.5-0.9-4.9-2-7-3.4
			c-2.2-1.4-3.9-3.4-5.2-5.7c-1.3-2.4-2-5.3-2-8.8c0-4,1.1-7.8,3.4-11.1c2.3-3.3,5.7-6,10.1-8c4.4-2,10-2.9,16.5-2.9
			c4.3,0,8.6,0.5,12.8,1.4c4.2,0.9,8,2.3,11.4,4.2l0.6,0.3l-7,16.7l-0.7-0.4c-3.1-1.5-6.1-2.7-8.9-3.5c-2.8-0.8-5.6-1.1-8.3-1.1
			c-2,0-3.5,0.2-4.6,0.5c-1.1,0.3-1.8,0.7-2.2,1.2c-0.4,0.5-0.6,1-0.6,1.5c0,0.5,0.2,1.2,1.5,1.9c1.2,0.6,2.8,1.1,4.8,1.5
			c2.1,0.4,4.3,0.9,6.8,1.3c2.5,0.5,5,1.2,7.5,2c2.5,0.9,4.9,2,7,3.4c2.2,1.4,3.9,3.3,5.2,5.7c1.3,2.3,2,5.2,2,8.7
			c0,4-1.1,7.7-3.4,11c-2.3,3.3-5.7,6-10.1,8C41.6,111.5,36,112.5,29.4,112.5z"/>
		<path class="st1" d="M32.2,45.9c4.3,0,8.5,0.4,12.6,1.4c4.1,0.9,7.9,2.3,11.2,4.1l-6.4,15.4c-3.1-1.6-6.1-2.7-9-3.5
			c-2.9-0.8-5.7-1.2-8.5-1.2c-2,0-3.7,0.2-4.9,0.5C26,63,25.1,63.4,24.6,64c-0.5,0.6-0.8,1.3-0.8,2c0,1.1,0.6,1.9,1.9,2.6
			s2.9,1.2,5,1.6c2.1,0.4,4.3,0.9,6.8,1.3c2.5,0.5,5,1.1,7.4,2c2.5,0.8,4.7,2,6.8,3.3c2.1,1.4,3.7,3.2,5,5.4c1.3,2.2,1.9,5,1.9,8.3
			c0,3.8-1.1,7.4-3.3,10.6c-2.2,3.2-5.4,5.8-9.8,7.7c-4.3,1.9-9.8,2.9-16.3,2.9c-5.3,0-10.4-0.6-15.3-1.8c-4.9-1.2-9-2.8-12.1-4.7
			l6.8-15.5c3,1.7,6.3,3.1,10,4.2c3.7,1.1,7.3,1.6,10.8,1.6c2,0,3.6-0.1,4.8-0.4c1.2-0.3,2-0.7,2.6-1.2c0.5-0.5,0.8-1.1,0.8-1.8
			c0-1.1-0.6-2-1.9-2.7c-1.3-0.7-2.9-1.2-5-1.7c-2.1-0.5-4.3-0.9-6.8-1.4c-2.5-0.5-4.9-1.2-7.4-2c-2.5-0.8-4.8-1.9-6.8-3.3
			c-2.1-1.4-3.7-3.2-5-5.4s-1.9-5.1-1.9-8.4c0-3.9,1.1-7.5,3.3-10.7c2.2-3.2,5.5-5.8,9.8-7.7C20.3,46.8,25.8,45.9,32.2,45.9
			 M32.2,44.4c-6.7,0-12.3,1-16.9,3c-4.6,2-8.1,4.8-10.4,8.2C2.6,59,1.4,62.9,1.4,67.1c0,3.6,0.7,6.7,2.1,9.1c1.4,2.4,3.2,4.5,5.5,6
			c2.2,1.4,4.6,2.6,7.2,3.5c2.5,0.9,5.1,1.6,7.6,2.1c2.5,0.5,4.8,1,6.8,1.4c1.9,0.4,3.5,0.9,4.6,1.5c1.1,0.6,1.1,1.1,1.1,1.4
			c0,0.3-0.1,0.5-0.3,0.8c-0.2,0.2-0.7,0.5-1.9,0.8C33,93.9,31.5,94,29.5,94c-3.3,0-6.8-0.5-10.3-1.5c-3.6-1-6.8-2.4-9.7-4L8,87.6
			l-0.7,1.5l-6.8,15.5L0,105.9l1.1,0.7c3.3,2,7.5,3.6,12.6,4.9c5,1.2,10.3,1.8,15.7,1.8c6.7,0,12.4-1,16.9-3.1
			c4.6-2.1,8-4.8,10.4-8.3c2.4-3.4,3.5-7.3,3.5-11.4c0-3.5-0.7-6.6-2.1-9c-1.4-2.4-3.2-4.4-5.5-5.9c-2.2-1.4-4.6-2.6-7.1-3.5
			c-2.5-0.9-5.1-1.5-7.6-2c-2.4-0.5-4.7-0.9-6.8-1.3c-1.9-0.4-3.5-0.9-4.6-1.4c-1.1-0.5-1.1-1-1.1-1.2c0-0.4,0.1-0.7,0.4-1
			c0.2-0.3,0.7-0.6,1.9-1c1.1-0.3,2.5-0.5,4.4-0.5c2.6,0,5.3,0.4,8.1,1.1c2.8,0.8,5.7,1.9,8.8,3.4l1.4,0.7l0.6-1.5l6.4-15.4l0.5-1.2
			L56.7,50c-3.4-1.9-7.3-3.4-11.6-4.3C40.9,44.8,36.6,44.4,32.2,44.4L32.2,44.4z"/>
	</g>
	<g>
		<path class="st0" d="M115.9,111l-4.2-11H88.7l-4.2,11H61.2l28.2-64.5h21.9l28.2,64.5H115.9z M105.2,83.3l-5-13l-5,13H105.2z"/>
		<path class="st1" d="M110.8,47.3l27.5,63h-22l-4.2-11h-24l-4.2,11H62.4l27.5-63H110.8 M94.1,84h12.2l-6.1-15.9L94.1,84
			 M111.8,45.8h-1H89.9h-1l-0.4,0.9l-27.5,63l-0.9,2.1h2.3H84h1l0.4-1l3.9-10h21.9l3.9,10l0.4,1h1h22h2.3l-0.9-2.1l-27.5-63
			L111.8,45.8L111.8,45.8z M96.3,82.5l3.9-10.2l3.9,10.2H96.3L96.3,82.5z"/>
	</g>
	<g>
		<polygon class="st0" points="144.2,111 144.2,46.5 166.9,46.5 166.9,93.1 195.3,93.1 195.3,111 		"/>
		<path class="st1" d="M166.1,47.3v46.5h28.4v16.5h-49.7v-63H166.1 M167.6,45.8h-1.5h-21.2h-1.5v1.5v63v1.5h1.5h49.7h1.5v-1.5V93.8
			v-1.5h-1.5h-26.9v-45V45.8L167.6,45.8z"/>
	</g>
	<g>
		<path class="st0" d="M256.4,111l-4.2-11h-22.9l-4.2,11h-23.3l28.2-64.5h21.9L280,111H256.4z M245.7,83.3l-5-13l-5,13H245.7z"/>
		<path class="st1" d="M251.3,47.3l27.5,63h-22l-4.2-11h-24l-4.2,11h-21.6l27.5-63H251.3 M234.6,84h12.2l-6.1-15.9L234.6,84
			 M252.3,45.8h-1h-20.9h-1l-0.4,0.9l-27.5,63l-0.9,2.1h2.3h21.6h1l0.4-1l3.9-10h21.9l3.9,10l0.4,1h1h22h2.3l-0.9-2.1l-27.5-63
			L252.3,45.8L252.3,45.8z M236.8,82.5l3.9-10.2l3.9,10.2H236.8L236.8,82.5z"/>
	</g>
	<g>
		<polygon class="st0" points="291.8,111 291.8,64.5 273.4,64.5 273.4,46.5 333,46.5 333,64.5 314.6,64.5 314.6,111 		"/>
		<path class="st1" d="M332.3,47.3v16.5h-18.5v46.5h-21.2V63.8h-18.4V47.3H332.3 M333.8,45.8h-1.5h-58.1h-1.5v1.5v16.5v1.5h1.5h16.9
			v45v1.5h1.5h21.2h1.5v-1.5v-45h17h1.5v-1.5V47.3V45.8L333.8,45.8z"/>
	</g>
</g>
</svg>
