<?xml version="1.0" encoding="utf-8"?>
<!-- Generator: Adobe Illustrator 27.9.0, SVG Export Plug-In . SVG Version: 6.00 Build 0)  -->
<svg version="1.1" id="Ebene_1" xmlns="http://www.w3.org/2000/svg" xmlns:xlink="http://www.w3.org/1999/xlink" x="0px" y="0px"
	 viewBox="0 0 230.2 107.6" style="enable-background:new 0 0 230.2 107.6;" xml:space="preserve">
<style type="text/css">
	.st0{fill:#FFEF68;stroke:#FFFFFF;stroke-width:2;stroke-miterlimit:10;}
</style>
<g>
	<path class="st0" d="M32.8,34c-1.4-0.9-3-1.6-4.6-2.2c-1.7-0.5-3.4-1-5.1-1.3c-1.7-0.4-3.2-0.7-4.6-1.1c-1.4-0.3-2.5-0.8-3.4-1.3
		c-0.9-0.5-1.3-1.3-1.3-2.2c0-0.6,0.2-1.2,0.7-1.8c0.4-0.6,1.2-1,2.2-1.4c1-0.4,2.3-0.5,4-0.5c1.8,0,3.7,0.3,5.7,0.8
		c2,0.5,3.9,1.3,5.9,2.5l3.6-8.8c-2-1.2-4.4-2.2-7-2.8c-2.7-0.6-5.4-0.9-8.1-0.9c-4.1,0-7.6,0.6-10.3,1.9c-2.8,1.2-4.8,2.9-6.2,4.9
		c-1.4,2-2,4.3-2,6.8c0,2.2,0.4,4.1,1.3,5.6c0.9,1.5,2,2.7,3.4,3.6c1.4,0.9,3,1.7,4.7,2.2c1.7,0.6,3.4,1,5.1,1.4
		c1.7,0.3,3.2,0.7,4.6,1.1c1.4,0.4,2.6,0.8,3.5,1.4c0.9,0.5,1.3,1.3,1.3,2.2c0,0.7-0.2,1.3-0.7,1.9c-0.5,0.5-1.2,0.9-2.2,1.2
		c-1,0.3-2.3,0.4-4,0.4c-2.4,0-4.9-0.4-7.4-1.2c-2.5-0.8-4.6-1.8-6.5-3L1.3,52c2,1.3,4.5,2.4,7.7,3.3c3.2,0.9,6.5,1.3,10,1.3
		c4.2,0,7.6-0.6,10.4-1.9c2.8-1.2,4.8-2.9,6.2-5c1.4-2.1,2.1-4.3,2.1-6.8c0-2.2-0.4-4-1.3-5.5C35.4,36.1,34.3,34.9,32.8,34z"/>
	<path class="st0" d="M71.4,10.4c1.4,0,2.5-0.4,3.4-1.3c0.9-0.8,1.3-2,1.3-3.4c0-1.4-0.4-2.5-1.3-3.4c-0.9-0.9-2-1.3-3.4-1.3
		c-1.3,0-2.4,0.4-3.4,1.3c-0.9,0.9-1.4,2-1.4,3.4c0,1.4,0.5,2.6,1.4,3.4C69,9.9,70.1,10.4,71.4,10.4z"/>
	<path class="st0" d="M65,56.6c6.2,0,11-1.7,14.5-5.1c3.5-3.4,5.2-8.2,5.2-14.4V13.7H72.9v23c0,3.6-0.7,6.1-2.1,7.7
		c-1.4,1.6-3.3,2.3-5.8,2.3c-2.5,0-4.4-0.8-5.8-2.3c-1.4-1.6-2.1-4.1-2.1-7.7v-23H45.3v23.3c0,6.2,1.7,11,5.2,14.4
		C53.9,54.9,58.8,56.6,65,56.6z"/>
	<path class="st0" d="M58.7,10.4c1.4,0,2.5-0.4,3.4-1.3c0.9-0.8,1.4-2,1.4-3.4c0-1.4-0.5-2.5-1.4-3.4c-0.9-0.9-2-1.3-3.4-1.3
		c-1.3,0-2.4,0.4-3.4,1.3c-0.9,0.9-1.4,2-1.4,3.4c0,1.4,0.5,2.6,1.4,3.4C56.3,9.9,57.4,10.4,58.7,10.4z"/>
	<path class="st0" d="M114.3,46.9c-1,0.3-2.3,0.4-4,0.4c-2.4,0-4.9-0.4-7.4-1.2c-2.5-0.8-4.6-1.8-6.5-3L92.6,52
		c2,1.3,4.5,2.4,7.7,3.3c3.2,0.9,6.5,1.3,10,1.3c4.2,0,7.6-0.6,10.4-1.9c2.8-1.2,4.8-2.9,6.2-5c1.4-2.1,2.1-4.3,2.1-6.8
		c0-2.2-0.4-4-1.3-5.5c-0.9-1.5-2-2.6-3.5-3.5s-3-1.6-4.6-2.2c-1.7-0.5-3.4-1-5.1-1.3c-1.7-0.4-3.3-0.7-4.7-1.1
		c-1.4-0.3-2.5-0.8-3.4-1.3c-0.9-0.5-1.3-1.3-1.3-2.2c0-0.6,0.2-1.2,0.7-1.8c0.4-0.6,1.2-1,2.2-1.4c1-0.4,2.3-0.5,4-0.5
		c1.8,0,3.7,0.3,5.7,0.8c2,0.5,3.9,1.3,5.9,2.5l3.6-8.8c-2-1.2-4.4-2.2-7-2.8c-2.7-0.6-5.4-0.9-8.1-0.9c-4.1,0-7.6,0.6-10.3,1.9
		c-2.8,1.2-4.8,2.9-6.2,4.9c-1.4,2-2,4.3-2,6.8c0,2.2,0.4,4.1,1.3,5.6c0.9,1.5,2,2.7,3.4,3.6c1.4,0.9,3,1.7,4.7,2.2
		c1.7,0.6,3.4,1,5.1,1.4c1.7,0.3,3.2,0.7,4.6,1.1c1.4,0.4,2.6,0.8,3.5,1.4c0.9,0.5,1.3,1.3,1.3,2.2c0,0.7-0.2,1.3-0.7,1.9
		S115.3,46.6,114.3,46.9z"/>
	<path class="st0" d="M164.1,54.7c2.8-1.2,4.8-2.9,6.2-5c1.4-2.1,2.1-4.3,2.1-6.8c0-2.2-0.4-4-1.3-5.5s-2-2.6-3.5-3.5
		s-3-1.6-4.6-2.2c-1.7-0.5-3.4-1-5.1-1.3c-1.7-0.4-3.2-0.7-4.6-1.1c-1.4-0.3-2.5-0.8-3.4-1.3s-1.3-1.3-1.3-2.2
		c0-0.6,0.2-1.2,0.7-1.8c0.4-0.6,1.2-1,2.2-1.4c1-0.4,2.3-0.5,4-0.5c1.8,0,3.7,0.3,5.7,0.8c2,0.5,3.9,1.3,5.9,2.5l3.6-8.8
		c-2-1.2-4.4-2.2-7-2.8c-2.7-0.6-5.4-0.9-8.1-0.9c-4.1,0-7.6,0.6-10.3,1.9c-2.8,1.2-4.8,2.9-6.2,4.9c-1.4,2-2,4.3-2,6.8
		c0,2.2,0.4,4.1,1.3,5.6c0.9,1.5,2,2.7,3.4,3.6s3,1.7,4.7,2.2c1.7,0.6,3.4,1,5.1,1.4c1.7,0.3,3.2,0.7,4.6,1.1
		c1.4,0.4,2.6,0.8,3.5,1.4c0.9,0.5,1.3,1.3,1.3,2.2c0,0.7-0.2,1.3-0.7,1.9c-0.5,0.5-1.2,0.9-2.2,1.2c-1,0.3-2.3,0.4-4,0.4
		c-2.4,0-4.9-0.4-7.3-1.2c-2.5-0.8-4.6-1.8-6.5-3L136,52c2,1.3,4.5,2.4,7.7,3.3c3.2,0.9,6.5,1.3,10,1.3
		C157.9,56.6,161.3,55.9,164.1,54.7z"/>
	<path class="st0" d="M32.8,84c-1.4-0.9-3-1.6-4.6-2.2c-1.7-0.5-3.4-1-5.1-1.3c-1.7-0.4-3.2-0.7-4.6-1.1c-1.4-0.3-2.5-0.8-3.4-1.3
		c-0.9-0.5-1.3-1.3-1.3-2.2c0-0.6,0.2-1.2,0.7-1.8c0.4-0.6,1.2-1,2.2-1.4c1-0.4,2.3-0.5,4-0.5c1.8,0,3.7,0.3,5.7,0.8
		c2,0.5,3.9,1.3,5.9,2.5l3.6-8.8c-2-1.2-4.4-2.2-7-2.8c-2.7-0.6-5.4-0.9-8.1-0.9c-4.1,0-7.6,0.6-10.3,1.9c-2.8,1.2-4.8,2.9-6.2,4.9
		c-1.4,2-2,4.3-2,6.8c0,2.2,0.4,4.1,1.3,5.6c0.9,1.5,2,2.7,3.4,3.6c1.4,0.9,3,1.7,4.7,2.2c1.7,0.6,3.4,1,5.1,1.4
		c1.7,0.3,3.2,0.7,4.6,1.1c1.4,0.4,2.6,0.8,3.5,1.4c0.9,0.5,1.3,1.3,1.3,2.2c0,0.7-0.2,1.3-0.7,1.9c-0.5,0.5-1.2,0.9-2.2,1.2
		c-1,0.3-2.3,0.4-4,0.4c-2.4,0-4.9-0.4-7.4-1.2c-2.5-0.8-4.6-1.8-6.5-3L1.3,102c2,1.3,4.5,2.4,7.7,3.3c3.2,0.9,6.5,1.3,10,1.3
		c4.2,0,7.6-0.6,10.4-1.9c2.8-1.2,4.8-2.9,6.2-5c1.4-2.1,2.1-4.3,2.1-6.8c0-2.2-0.4-4-1.3-5.5C35.4,86.1,34.3,84.9,32.8,84z"/>
	<path class="st0" d="M61.4,63.7l-18.5,42H55l3.3-8.2H76l3.3,8.2h12.4l-18.6-42H61.4z M61.8,88.8l5.4-13.4l5.4,13.4H61.8z"/>
	<path class="st0" d="M124.3,86.7c0,3.6-0.7,6.1-2.1,7.7c-1.4,1.6-3.3,2.3-5.8,2.3c-2.5,0-4.4-0.8-5.8-2.3c-1.4-1.6-2.1-4.1-2.1-7.7
		v-23H96.6v23.3c0,6.2,1.7,11,5.2,14.4c3.5,3.4,8.3,5.1,14.5,5.1c6.2,0,11-1.7,14.5-5.1c3.5-3.4,5.2-8.2,5.2-14.4V63.7h-11.8V86.7z"
		/>
	<polygon class="st0" points="158.8,88.8 177.5,88.8 177.5,80 158.8,80 158.8,73 180,73 180,63.7 147.1,63.7 147.1,105.7 
		180.8,105.7 180.8,96.5 158.8,96.5 	"/>
	<path class="st0" d="M215.6,105.7h12.7l-9.1-13.2c2.6-1.2,4.6-2.9,6-5c1.5-2.3,2.2-5,2.2-8.3c0-3.2-0.8-5.9-2.2-8.2
		s-3.7-4.1-6.4-5.4c-2.8-1.2-6.1-1.9-10-1.9h-19.1v42h11.9V94.6h6.4L215.6,105.7z M213.7,74.7c1.2,1.1,1.9,2.6,1.9,4.5
		c0,2-0.6,3.5-1.9,4.6c-1.2,1.1-3.1,1.6-5.6,1.6h-6.5V73.1h6.5C210.6,73.1,212.4,73.6,213.7,74.7z"/>
</g>
</svg>
