<?xml version="1.0" encoding="utf-8"?>
<!-- Generator: Adobe Illustrator 27.9.0, SVG Export Plug-In . SVG Version: 6.00 Build 0)  -->
<svg version="1.1" id="Ebene_1" xmlns="http://www.w3.org/2000/svg" xmlns:xlink="http://www.w3.org/1999/xlink" x="0px" y="0px"
	 viewBox="0 0 198.4 208.1" style="enable-background:new 0 0 198.4 208.1;" xml:space="preserve">
<style type="text/css">
	.st0{fill:#FFFFFF;}
</style>
<g>
	<path class="st0" d="M6.4,85.6c-0.6,0.1-1.2,0.3-1.7,0.5c-0.5,0.2-1,0.5-1.5,0.8C3.1,87,3,87.1,2.9,87.2c-0.1,0.1-0.2,0.2-0.3,0.3
		c-0.1,0-0.1,0.1-0.2,0.1c-0.2,0.1-0.3,0.3-0.4,0.4c-0.2,0.2-0.3,0.4-0.5,0.6c-0.2,0.2-0.3,0.4-0.4,0.6c-0.6,1.1-1,2.4-1.1,3.7
		c-0.1,0.8,0,1.7,0.1,2.6c0.1,1.2,0.3,2.3,0.7,3.5c0.1,0.6,0.3,1.2,0.5,1.8c0.2,0.6,0.4,1.2,0.6,1.8c0.2,0.6,0.4,1.2,0.7,1.8
		c1.7,4.1,3.9,8.1,6.3,11.9c0.6,0.9,1.2,1.8,1.8,2.8c0.6,0.9,1.2,1.8,1.9,2.7c-0.2-1.1-0.4-2.3-0.5-3.4c-0.3-2.3-0.5-4.6-0.6-6.8
		c0-1.1-0.1-2.3-0.1-3.4c0-1.9,0.1-3.7,0.2-5.5s0.3-3.7,0.6-5.5c0.4-2.7,0.9-5.5,1.6-8.1c0.2-1,0.5-1.9,0.8-2.9l-0.4-0.2
		C11.5,85.2,8.8,85,6.4,85.6z"/>
	<path class="st0" d="M41.6,53c3.7-1.2,7.4-2.2,11.2-3.3c7.5-2.1,15.1-3.9,22.8-5.3c7.7-1.3,15.6-2.2,23.6-2.2h0
		c8,0,15.9,0.9,23.6,2.2c7.7,1.4,15.4,3.2,22.8,5.3c3.7,1.1,7.5,2.1,11.2,3.3l11.1,3.5c7.3,2.4,14.7,4.8,22.1,7.1
		C182.6,61.2,142.5,0,99.2,0S15.8,61.3,8.4,63.5c7.4-2.3,14.8-4.6,22.1-7.1L41.6,53z"/>
	<path class="st0" d="M23.5,66.3"/>
	<path class="st0" d="M174.9,66.3c0,0-0.4-0.8-1.2-2.1c-22.8-8.6-48-13.4-74.6-13.4s-51.8,4.8-74.6,13.4c-0.7,1.3-1.2,2.1-1.2,2.1
		c-6.4,13-9.5,27.5-8.5,41.6c0.8,14.2,5.5,27.9,13.2,39.5c3.9,5.8,8.5,11.1,13.7,15.8c5.2,4.7,11,8.6,17.1,11.9
		c6.1,3.2,12.5,5.6,19.2,7.3c0-0.1,0-0.3,0-0.4c0.6-4.5,2.6-8.7,5.3-11.9c-6,18.1,6.3,32,15.7,38.1c9.3-6.1,21.7-19.9,15.7-38.1
		c2.8,3.2,4.7,7.4,5.3,11.9c0,0.1,0,0.3,0,0.4c6.6-1.7,13.1-4.1,19.2-7.3c6.2-3.2,11.9-7.2,17.1-11.9c5.2-4.7,9.8-10,13.7-15.8
		c7.7-11.6,12.4-25.4,13.2-39.5C184.5,93.7,181.3,79.3,174.9,66.3z M91.2,123.6c0.4,0.3,0.7,0.6,1.1,0.8c0.7,0.5,1.5,1,2.3,1.4
		c1.5,0.8,3.1,1.2,4.7,1.2c1.6,0,3.2-0.4,4.7-1.2c0.8-0.4,1.5-0.8,2.3-1.4c0.4-0.3,0.7-0.5,1.1-0.8c0.4-0.3,1-0.8,1.5-1.1
		c2.2-1.3,4.8-1.8,7.1-1.2c2.3,0.5,4.3,1.9,5.4,3.8c-3.7-2.2-7.8-1.5-10.1,0.8c-0.3,0.3-0.5,0.5-0.8,0.9c-0.4,0.4-0.8,0.8-1.2,1.2
		c-0.8,0.8-1.8,1.5-2.8,2.2c-1,0.6-2.2,1.1-3.4,1.5c-1.2,0.4-2.5,0.5-3.8,0.6c-1.3,0-2.5-0.2-3.8-0.5c-1.2-0.4-2.3-0.9-3.4-1.5
		c-1-0.6-2-1.4-2.8-2.2c-0.4-0.4-0.8-0.8-1.2-1.2c-0.3-0.4-0.5-0.6-0.8-0.9c-2.3-2.2-6.4-2.9-10.1-0.8c1.1-1.9,3.1-3.3,5.4-3.8
		c2.3-0.5,5-0.1,7.2,1.2C90.2,122.8,90.7,123.3,91.2,123.6z M23.7,89.2c1.2-2.8,2.7-5.5,4.6-8c0.9-1.3,1.9-2.4,3-3.6
		c1.1-1.1,2.2-2.2,3.5-3.2c2.5-2,5.2-3.8,8.3-5c3-1.2,6.3-2,9.7-2.1c6.7-0.3,13.1,1.8,18.5,5.1c5.4,3.3,9.9,7.7,13.3,12.8
		c-5.2-3.3-10.2-6.2-15.5-8.4c-5.3-2.1-10.7-3.4-16-3.2c-5.3,0.2-10.5,2-15.3,4.8c-1.2,0.7-2.4,1.5-3.6,2.3
		c-1.1,0.9-2.3,1.7-3.5,2.6C28.2,85.1,26.1,87.2,23.7,89.2z M39.2,110.8c-4.1,2.1-7.7,5.1-11,8.6c2.2-4.2,5.6-8,9.7-10.7
		c4.1-2.8,8.8-4.5,13.7-5.3c2.4-0.4,4.9-0.6,7.3-0.6c2.4,0,4.9,0.1,7.3,0.5c4.8,0.7,9.5,2,13.8,4.1c-3.7-1.9-7-3.8-10.4-5.3
		c-3.4-1.5-6.8-2.7-10.2-3.4c-3.5-0.7-7-1.1-10.6-0.9c-3.6,0.2-7.2,0.9-11.1,2.3c2.3-3.5,6.1-5.9,10.2-7.2c4.1-1.3,8.6-1.4,12.8-0.4
		c4.2,0.9,8.2,2.8,11.5,5.4c3.3,2.6,6,5.8,7.8,9.6c-4.7-0.9-9.4-1.4-14-1.6c-2.3-0.1-4.6-0.1-7,0c-2.3,0.1-4.6,0.3-6.9,0.7
		C47.6,107.3,43.2,108.6,39.2,110.8z M83.5,170.1C83.5,170.1,83.5,170.1,83.5,170.1C83.5,170.1,83.5,170.1,83.5,170.1L83.5,170.1z
		 M114.9,170.1C114.9,170.1,114.9,170.1,114.9,170.1L114.9,170.1C114.9,170.1,114.9,170.1,114.9,170.1z M135.9,141.3
		c-3.2,3.1-6.3,6.4-9.9,9.5c-8.7,7.4-17.3,10.6-26.7,10.6s-18.1-3.1-26.7-10.6l0,0c-3.6-3-6.7-6.3-9.9-9.5
		c-3.2-3.1-6.4-6.1-10.4-8.4c1.1,0.2,2.3,0.5,3.4,0.8l1.6,0.6l0.8,0.3l0.8,0.4c1.1,0.5,2.1,1,3.1,1.6c1,0.6,2,1.2,3,1.8
		c3.9,2.5,7.5,5.3,11.1,7.7c3.7,2.4,7.4,4.5,11.2,5.8c3.9,1.4,7.9,2,12,2c4.1,0,8.2-0.7,12-2c3.9-1.3,7.6-3.4,11.2-5.8
		c3.7-2.4,7.3-5.2,11.1-7.7c1-0.6,2-1.2,3-1.8c1-0.6,2.1-1.1,3.1-1.6l0.8-0.4l0.8-0.3l1.6-0.6c1.1-0.4,2.3-0.6,3.4-0.8
		C142.3,135.2,139.1,138.2,135.9,141.3z M159.3,110.8c-4-2.2-8.4-3.5-12.9-4.3c-2.3-0.4-4.5-0.6-6.9-0.7c-2.3-0.2-4.6-0.1-7,0
		c-4.7,0.2-9.3,0.8-14,1.6c1.8-3.7,4.5-7,7.8-9.6c3.3-2.6,7.3-4.5,11.5-5.4c4.2-0.9,8.7-0.8,12.8,0.4c4.1,1.2,7.9,3.7,10.2,7.2
		c-3.9-1.4-7.5-2.1-11.1-2.3c-3.6-0.2-7.1,0.1-10.6,0.9c-3.5,0.7-6.9,1.9-10.2,3.4c-3.4,1.5-6.7,3.4-10.4,5.3
		c4.3-2.1,9-3.4,13.8-4.1c2.4-0.4,4.8-0.5,7.3-0.5c2.4,0,4.9,0.2,7.3,0.6c4.8,0.8,9.6,2.6,13.7,5.3c4.1,2.7,7.5,6.5,9.7,10.7
		C166.9,115.9,163.3,112.9,159.3,110.8z M167.9,83.3c-1.1-1-2.3-1.8-3.5-2.6c-1.2-0.8-2.4-1.6-3.6-2.3c-4.8-2.9-10-4.6-15.3-4.8
		c-5.3-0.2-10.7,1-16,3.2c-5.3,2.1-10.3,5.1-15.5,8.4c3.3-5.1,7.9-9.5,13.3-12.8c5.4-3.2,11.8-5.3,18.5-5.1c3.3,0.1,6.6,0.9,9.7,2.1
		c3,1.2,5.8,3,8.3,5c1.3,1,2.4,2.1,3.5,3.2c1,1.2,2.1,2.3,3,3.6c1.9,2.5,3.3,5.2,4.6,8C172.3,87.2,170.2,85.1,167.9,83.3z"/>
	<path class="st0" d="M186.3,97.2c0.3,1.8,0.4,3.7,0.6,5.5c0.1,1.8,0.2,3.7,0.2,5.5c0,3.4-0.2,6.7-0.6,10.1
		c-0.1,1.1-0.3,2.2-0.5,3.3c1-1.4,1.9-2.7,2.8-4.1c0.3-0.5,0.6-0.9,0.9-1.4c1-1.7,2-3.3,3-5c1.6-2.8,2.9-5.7,4-8.6
		c0.4-1.2,0.8-2.4,1.1-3.5c0.2-0.6,0.3-1.2,0.4-1.8c0.1-0.6,0.2-1.2,0.3-1.8c0.1-0.9,0.1-1.7,0.1-2.6c-0.1-0.8-0.2-1.6-0.4-2.3
		c-0.2-0.5-0.4-1-0.6-1.4c-0.1-0.2-0.3-0.4-0.4-0.6c-0.2-0.2-0.3-0.4-0.5-0.6c0-0.1-0.1-0.1-0.1-0.1c-0.1-0.1-0.3-0.3-0.5-0.4
		c-0.2-0.2-0.4-0.4-0.7-0.5c-0.7-0.5-1.5-0.8-2.3-1.1c-0.3-0.1-0.6-0.2-0.9-0.2c-0.3-0.1-0.6-0.1-0.9-0.2c-0.6-0.1-1.2-0.1-1.9-0.2
		c-0.3,0-0.6,0-1,0c-0.6,0-1.3,0.1-2,0.2c-0.7,0.1-1.3,0.2-2,0.3c0,0,0,0,0,0l-0.4,0.2c0.6,1.9,1.1,3.9,1.5,5.9
		C185.7,93.6,186.1,95.4,186.3,97.2z"/>
</g>
</svg>
