<?xml version="1.0" encoding="utf-8"?>
<!-- Generator: Adobe Illustrator 27.9.0, SVG Export Plug-In . SVG Version: 6.00 Build 0)  -->
<svg version="1.1" id="Ebene_1" xmlns="http://www.w3.org/2000/svg" xmlns:xlink="http://www.w3.org/1999/xlink" x="0px" y="0px"
	 viewBox="0 0 298.3 94" style="enable-background:new 0 0 298.3 94;" xml:space="preserve">
<style type="text/css">
	.st0{fill:#FFEF68;stroke:#FFFFFF;stroke-width:2;stroke-miterlimit:10;}
</style>
<g>
	<path class="st0" d="M12.9,32h7.3c3.8,0,7.2-0.6,10-1.9c2.8-1.3,5-3,6.5-5.3c1.5-2.3,2.2-5.1,2.2-8.3c0-3.2-0.8-5.9-2.2-8.2
		s-3.7-4.1-6.5-5.4C27.3,1.6,24,1,20.1,1H1v42h11.9V32z M25,12c1.2,1.1,1.9,2.6,1.9,4.5c0,2-0.6,3.5-1.9,4.5
		c-1.2,1.1-3.1,1.6-5.6,1.6h-6.5V10.4h6.5C21.9,10.4,23.8,10.9,25,12z"/>
	<polygon class="st0" points="59.8,28.6 78.3,28.6 78.3,19.4 59.8,19.4 59.8,10.2 80.8,10.2 80.8,1 48,1 48,43 59.8,43 	"/>
	<polygon class="st0" points="101.2,26.1 119.9,26.1 119.9,17.3 101.2,17.3 101.2,10.2 122.4,10.2 122.4,1 89.5,1 89.5,43 123.2,43 
		123.2,33.8 101.2,33.8 	"/>
	<polygon class="st0" points="143.9,28.6 162.4,28.6 162.4,19.4 143.9,19.4 143.9,10.2 164.9,10.2 164.9,1 132.1,1 132.1,43 
		143.9,43 	"/>
	<polygon class="st0" points="173.6,43 185.5,43 185.5,28.6 204,28.6 204,19.4 185.5,19.4 185.5,10.2 206.5,10.2 206.5,1 173.6,1 	
		"/>
	<polygon class="st0" points="226.9,26.1 245.5,26.1 245.5,17.3 226.9,17.3 226.9,10.2 248,10.2 248,1 215.2,1 215.2,43 248.8,43 
		248.8,33.8 226.9,33.8 	"/>
	<path class="st0" d="M283.6,43h12.7l-9.1-13.2c2.6-1.2,4.6-2.9,6-5c1.5-2.3,2.2-5,2.2-8.3c0-3.2-0.8-5.9-2.2-8.2s-3.7-4.1-6.4-5.4
		c-2.8-1.2-6.1-1.9-10-1.9h-19.1v42h11.9V31.8h6.4L283.6,43z M281.7,12c1.2,1.1,1.9,2.6,1.9,4.5c0,2-0.6,3.5-1.9,4.6
		c-1.2,1.1-3.1,1.6-5.6,1.6h-6.5V10.4h6.5C278.6,10.4,280.5,10.9,281.7,12z"/>
	<path class="st0" d="M36.6,74.8c1.5-2.3,2.2-5,2.2-8.3c0-3.2-0.8-5.9-2.2-8.2s-3.7-4.1-6.5-5.4c-2.8-1.2-6.1-1.9-10-1.9H1v42h11.9
		V81.8h6.4L26.9,93h12.7l-9.1-13.2C33.1,78.6,35.1,76.9,36.6,74.8z M25,62c1.2,1.1,1.9,2.6,1.9,4.5c0,2-0.6,3.5-1.9,4.6
		c-1.2,1.1-3.1,1.6-5.6,1.6h-6.5V60.4h6.5C21.9,60.4,23.8,60.9,25,62z"/>
	<rect x="49" y="51" class="st0" width="11.9" height="42"/>
	<polygon class="st0" points="100.5,73.4 82,51 72.2,51 72.2,93 83.8,93 83.8,70.6 102.4,93 112.1,93 112.1,51 100.5,51 	"/>
	<path class="st0" d="M155.5,53.6c-3.5-1.7-7.6-2.6-12.2-2.6h-19.9v42h19.9c4.6,0,8.7-0.9,12.2-2.6c3.5-1.7,6.3-4.1,8.2-7.3
		c2-3.1,3-6.9,3-11.2c0-4.3-1-8-3-11.1C161.8,57.7,159,55.3,155.5,53.6z M153.2,78.1c-1,1.7-2.4,3.1-4.2,4c-1.8,0.9-3.9,1.4-6.3,1.4
		h-7.4v-23h7.4c2.4,0,4.5,0.5,6.3,1.4c1.8,0.9,3.2,2.2,4.2,3.9c1,1.7,1.5,3.8,1.5,6.2C154.7,74.4,154.2,76.4,153.2,78.1z"/>
</g>
</svg>
