<?xml version="1.0" encoding="utf-8"?>
<!-- Generator: Adobe Illustrator 27.9.0, SVG Export Plug-In . SVG Version: 6.00 Build 0)  -->
<svg version="1.1" id="Ebene_1" xmlns="http://www.w3.org/2000/svg" xmlns:xlink="http://www.w3.org/1999/xlink" x="0px" y="0px"
	 viewBox="0 0 235.5 79" style="enable-background:new 0 0 235.5 79;" xml:space="preserve">
<style type="text/css">
	.st0{fill:#FFEF68;stroke:#FFFFFF;stroke-miterlimit:10;}
</style>
<g>
	<path class="st0" d="M12.3,26.9h5.1c3.3,0,6.1-0.5,8.5-1.6c2.4-1.1,4.2-2.6,5.5-4.6c1.3-2,1.9-4.3,1.9-7c0-2.7-0.6-5-1.9-7
		c-1.3-2-3.1-3.5-5.5-4.6c-2.4-1.1-5.2-1.6-8.5-1.6H0.5v35h11.8V26.9z M20.2,10.7c0.8,0.7,1.2,1.7,1.2,3c0,1.3-0.4,2.3-1.2,3
		c-0.8,0.7-2,1.1-3.6,1.1h-4.3V9.6h4.3C18.2,9.6,19.4,10,20.2,10.7z"/>
	<polygon class="st0" points="49,24.3 63.5,24.3 63.5,15.4 49,15.4 49,9.4 65.6,9.4 65.6,0.5 37.2,0.5 37.2,35.5 49,35.5 	"/>
	<polygon class="st0" points="98.5,26.6 81,26.6 81,22 95.8,22 95.8,13.5 81,13.5 81,9.4 97.8,9.4 97.8,0.5 69.4,0.5 69.4,35.5 
		98.5,35.5 	"/>
	<polygon class="st0" points="114.8,24.3 129.4,24.3 129.4,15.4 114.8,15.4 114.8,9.4 131.4,9.4 131.4,0.5 103,0.5 103,35.5 
		114.8,35.5 	"/>
	<polygon class="st0" points="135.2,35.5 147,35.5 147,24.3 161.6,24.3 161.6,15.4 147,15.4 147,9.4 163.6,9.4 163.6,0.5 135.2,0.5 
			"/>
	<polygon class="st0" points="179,22 193.8,22 193.8,13.5 179,13.5 179,9.4 195.8,9.4 195.8,0.5 167.4,0.5 167.4,35.5 196.5,35.5 
		196.5,26.6 179,26.6 	"/>
	<path class="st0" d="M222,35.5h12.6l-7.4-10.8c2-1,3.5-2.3,4.7-4c1.3-1.9,2-4.3,2-7c0-2.7-0.7-5-2-7c-1.3-2-3.1-3.5-5.5-4.6
		c-2.4-1.1-5.2-1.6-8.5-1.6H201v35h11.8v-8.8h3.2L222,35.5z M220.8,10.7c0.8,0.7,1.2,1.7,1.2,3c0,1.3-0.4,2.3-1.2,3
		c-0.8,0.7-2,1.1-3.6,1.1h-4.3V9.6h4.3C218.8,9.6,220,10,220.8,10.7z"/>
	<path class="st0" d="M31.4,63.7c1.3-1.9,1.9-4.3,1.9-7s-0.6-5-1.9-7c-1.3-2-3.1-3.5-5.5-4.6c-2.4-1.1-5.2-1.6-8.5-1.6H0.5v35h11.8
		v-8.8h3.2l5.9,8.8H34l-7.4-10.8C28.6,66.7,30.2,65.4,31.4,63.7z M20.2,53.7c0.8,0.7,1.2,1.7,1.2,3c0,1.3-0.4,2.3-1.2,3
		c-0.8,0.7-2,1.1-3.6,1.1h-4.3v-8.2h4.3C18.2,52.6,19.4,53,20.2,53.7z"/>
	<rect x="37.8" y="43.5" class="st0" width="11.8" height="35"/>
	<polygon class="st0" points="78.2,59.4 64.9,43.5 55.2,43.5 55.2,78.5 66.8,78.5 66.8,62.6 80,78.5 89.8,78.5 89.8,43.5 78.2,43.5 
			"/>
	<path class="st0" d="M123,45.6c-3-1.4-6.4-2.1-10.3-2.1H95.4v35h17.2c3.9,0,7.3-0.7,10.3-2.1c3-1.4,5.3-3.4,7-6
		c1.7-2.6,2.5-5.7,2.5-9.4c0-3.6-0.8-6.7-2.5-9.3C128.3,49,126,47,123,45.6z M119.5,65.5c-0.7,1.2-1.7,2.2-2.9,2.8s-2.7,0.9-4.4,0.9
		h-5V52.7h5c1.7,0,3.1,0.3,4.4,0.9c1.2,0.6,2.2,1.6,2.9,2.8c0.7,1.2,1,2.7,1,4.5C120.5,62.8,120.2,64.3,119.5,65.5z"/>
</g>
</svg>
