<?xml version="1.0" encoding="utf-8"?>
<!-- Generator: Adobe Illustrator 28.2.0, SVG Export Plug-In . SVG Version: 6.00 Build 0)  -->
<svg version="1.1" id="Ebene_1" xmlns="http://www.w3.org/2000/svg" xmlns:xlink="http://www.w3.org/1999/xlink" x="0px" y="0px"
	 viewBox="0 0 334.73 77.73" style="enable-background:new 0 0 334.73 77.73;" xml:space="preserve">
<style type="text/css">
	.st0{fill:#FFEF68;stroke:#FFFFFF;stroke-width:2;stroke-miterlimit:10;}
</style>
<g>
	<path class="st0" d="M49.88,27.83L44.8,68.76L40,69.98L15.92,36.5l9.5,37.21l-11.01,2.81l-13.2-51.7l15.43-3.94l20.79,29.04
		l4.32-35.45l15.5-3.96l13.2,51.7l-11.08,2.83L49.88,27.83z"/>
	<path class="st0" d="M101.36,39.35l-8.27,0.93l2.15,19l-11.29,1.28L77.96,7.53l24.8-2.8c11.05-1.25,18.63,5.22,19.74,15.08
		c1.06,9.38-4.26,15.05-9.83,17.05l14.21,18.84l-12.96,1.46L101.36,39.35z M102.19,14.61l-11.85,1.34L92,30.58l11.85-1.34
		c4.53-0.51,7.63-3.76,7.12-8.21C110.47,16.58,106.72,14.1,102.19,14.61z"/>
	<path class="st0" d="M143.46,43.16c3.52-0.14,6.59,2.69,6.74,6.21s-2.69,6.59-6.21,6.74s-6.6-2.69-6.74-6.21
		S139.94,43.3,143.46,43.16z"/>
	<path class="st0" d="M164.83,1.03L192.9,1.8c10.16,0.28,15.18,6.9,14.98,14.02c-0.18,6.72-4.47,11.08-9.53,11.98
		c5.65,1.04,10.06,6.68,9.88,13.4c-0.22,8-5.75,14.25-15.91,13.97l-28.95-0.79L164.83,1.03z M189.62,45.4
		c4.32,0.12,6.95-2.29,7.05-6.13c0.09-3.36-2.23-6.3-6.71-6.43l-14.63-0.4L174.98,45L189.62,45.4z M189.83,23.16
		c3.84,0.11,6.31-2.31,6.4-5.75c0.09-3.28-2.24-5.9-6.08-6.01l-14.23-0.39l-0.32,11.76L189.83,23.16z"/>
	<path class="st0" d="M254.69,51.85l-23.64-3.11l-4.53,8.68l-12.37-1.63l27.43-50.21l14.12,1.86l13.41,55.59l-12.29-1.62
		L254.69,51.85z M235.36,39.38l17.53,2.31l-5.53-25.42L235.36,39.38z"/>
	<path class="st0" d="M312.87,18.21c15.61,4.2,23.97,18.38,19.79,33.91c-4.18,15.53-18.53,23.6-34.14,19.39
		c-15.53-4.18-23.89-18.36-19.71-33.89C282.99,22.1,297.34,14.03,312.87,18.21z M310.25,27.95c-9.5-2.56-17.56,3.06-20.16,12.72
		c-2.58,9.58,1.55,18.56,11.05,21.12c9.5,2.56,17.66-3.12,20.24-12.7C323.98,39.43,319.75,30.51,310.25,27.95z"/>
</g>
</svg>
