<?xml version="1.0" encoding="utf-8"?>
<!-- Generator: Adobe Illustrator 27.9.0, SVG Export Plug-In . SVG Version: 6.00 Build 0)  -->
<svg version="1.1" id="Ebene_1" xmlns="http://www.w3.org/2000/svg" xmlns:xlink="http://www.w3.org/1999/xlink" x="0px" y="0px"
	 viewBox="0 0 220.4 45.7" style="enable-background:new 0 0 220.4 45.7;" xml:space="preserve">
<style type="text/css">
	.st0{fill:#FFEF68;stroke:#FFFFFF;stroke-width:2;stroke-miterlimit:10;}
</style>
<g>
	<path class="st0" d="M32.8,22.1c-1.4-0.9-3-1.6-4.6-2.2c-1.7-0.5-3.4-1-5.1-1.3c-1.7-0.4-3.2-0.7-4.6-1c-1.4-0.3-2.5-0.8-3.4-1.3
		c-0.9-0.5-1.3-1.3-1.3-2.2c0-0.6,0.2-1.2,0.7-1.8c0.4-0.6,1.2-1,2.2-1.4c1-0.4,2.3-0.5,4-0.5c1.8,0,3.7,0.3,5.7,0.8
		c2,0.5,3.9,1.3,5.9,2.5l3.6-8.8c-2-1.2-4.4-2.2-7-2.8C26,1.3,23.3,1,20.6,1C16.5,1,13,1.6,10.3,2.9C7.5,4.1,5.4,5.7,4.1,7.8
		c-1.4,2-2,4.3-2,6.8c0,2.2,0.4,4.1,1.3,5.6c0.9,1.5,2,2.7,3.4,3.6c1.4,0.9,3,1.7,4.7,2.2c1.7,0.6,3.4,1,5.1,1.4
		c1.7,0.3,3.2,0.7,4.6,1.1c1.4,0.4,2.6,0.8,3.5,1.4c0.9,0.5,1.3,1.3,1.3,2.2c0,0.7-0.2,1.3-0.7,1.9C24.7,34.3,24,34.7,23,35
		c-1,0.3-2.3,0.4-4,0.4c-2.4,0-4.9-0.4-7.4-1.2c-2.5-0.8-4.6-1.8-6.5-3l-3.9,8.8c2,1.3,4.5,2.4,7.7,3.3c3.2,0.9,6.5,1.3,10,1.3
		c4.2,0,7.6-0.6,10.4-1.9c2.8-1.2,4.8-2.9,6.2-5c1.4-2.1,2.1-4.3,2.1-6.8c0-2.2-0.4-4-1.3-5.5C35.4,24.2,34.3,23,32.8,22.1z"/>
	<path class="st0" d="M61.4,1.8l-18.5,42H55l3.3-8.2H76l3.3,8.2h12.4l-18.6-42H61.4z M61.8,26.9l5.4-13.4l5.4,13.4H61.8z"/>
	<polygon class="st0" points="128.6,1.8 91,1.8 91,11.3 103.9,11.3 103.9,43.8 115.8,43.8 115.8,11.3 128.6,11.3 	"/>
	<path class="st0" d="M146.5,1.8l-18.5,42h12.1l3.3-8.2h17.8l3.3,8.2h12.4l-18.6-42H146.5z M146.8,26.9l5.4-13.4l5.4,13.4H146.8z"/>
	<polygon class="st0" points="218.7,1.8 207.2,1.8 197.2,18.5 187.2,1.8 174.6,1.8 190.7,28.6 190.7,43.8 202.6,43.8 202.6,28.9 	
		"/>
</g>
</svg>
