<?xml version="1.0" encoding="utf-8"?>
<!-- Generator: Adobe Illustrator 27.9.0, SVG Export Plug-In . SVG Version: 6.00 Build 0)  -->
<svg version="1.1" id="Ebene_1" xmlns="http://www.w3.org/2000/svg" xmlns:xlink="http://www.w3.org/1999/xlink" x="0px" y="0px"
	 viewBox="0 0 231.1 48.6" style="enable-background:new 0 0 231.1 48.6;" xml:space="preserve">
<style type="text/css">
	.st0{fill:#FFEF68;stroke:#FFFFFF;stroke-miterlimit:10;}
</style>
<g>
	<path class="st0" d="M40.3,26.8c-0.9-1.6-2.1-2.9-3.6-3.9c-1.5-1-3.1-1.8-4.9-2.4c-1.8-0.6-3.6-1.1-5.4-1.4c-1.8-0.3-3.4-0.7-4.9-1
		c-1.5-0.3-2.7-0.7-3.6-1.1s-1.4-1.1-1.4-1.9c0-0.5,0.2-1,0.6-1.4c0.4-0.4,1-0.8,1.9-1c0.9-0.3,2-0.4,3.5-0.4c2,0,4,0.3,6.1,0.8
		c2.1,0.6,4.3,1.4,6.5,2.5l4.6-11.1c-2.4-1.3-5.1-2.3-8.1-3c-3-0.6-6-1-9.1-1c-4.7,0-8.6,0.7-11.7,2.1C7.7,4,5.3,5.8,3.7,8.1
		c-1.6,2.3-2.4,4.9-2.4,7.7c0,2.4,0.5,4.5,1.4,6.1c0.9,1.6,2.1,2.9,3.6,3.9c1.5,1,3.1,1.8,4.9,2.4c1.8,0.6,3.6,1.1,5.4,1.5
		c1.8,0.4,3.4,0.7,4.9,1c1.5,0.3,2.7,0.7,3.6,1.2c0.9,0.5,1.4,1.1,1.4,2c0,0.5-0.2,1-0.6,1.3c-0.4,0.4-1,0.7-1.9,0.8
		c-0.8,0.2-2,0.3-3.5,0.3c-2.5,0-5.1-0.4-7.8-1.1c-2.7-0.8-5.1-1.8-7.2-3L0.6,43.4c2.3,1.4,5.2,2.5,8.8,3.4c3.6,0.9,7.2,1.3,11,1.3
		c4.7,0,8.6-0.7,11.8-2.1c3.1-1.4,5.5-3.3,7.1-5.6c1.6-2.3,2.4-4.9,2.4-7.6C41.6,30.4,41.2,28.4,40.3,26.8z"/>
	<path class="st0" d="M61.1,1.5L41.3,47h15.6l3-7.9h17.3l3,7.9h15.9L76.2,1.5H61.1z M64.2,28.1l4.4-11.5L73,28.1H64.2z"/>
	<polygon class="st0" points="134.9,1.5 92.9,1.5 92.9,13.4 106.2,13.4 106.2,47 121.5,47 121.5,13.4 134.9,13.4 	"/>
	<path class="st0" d="M151.5,1.5L131.6,47h15.6l3-7.9h17.3l3,7.9h15.9L166.6,1.5H151.5z M154.5,28.1l4.4-11.5l4.4,11.5H154.5z"/>
	<polygon class="st0" points="230.2,1.5 215.4,1.5 206,17.3 196.7,1.5 180.6,1.5 197.7,30.4 197.7,47 213.1,47 213.1,30.5 	"/>
</g>
</svg>
